<?xml version="1.0" standalone="no"?>
<!DOCTYPE svg PUBLIC "-//W3C//DTD SVG 20010904//EN"
 "http://www.w3.org/TR/2001/REC-SVG-20010904/DTD/svg10.dtd">
<svg version="1.0" xmlns="http://www.w3.org/2000/svg"
 width="325.000000pt" height="500.000000pt" viewBox="0 0 325.000000 500.000000"
 preserveAspectRatio="xMidYMid meet">

<g transform="translate(0.000000,500.000000) scale(0.100000,-0.100000)"
fill="#000000" stroke="none">
<path d="M0 4961 c0 -29 6 -44 21 -55 12 -8 37 -36 55 -62 34 -48 44 -84 22
-84 -6 0 -9 -3 -6 -6 4 -3 16 0 28 6 15 8 20 8 16 1 -4 -7 1 -11 13 -11 22 0
71 -57 71 -82 0 -19 58 -78 77 -78 7 0 22 -13 35 -30 12 -16 27 -30 33 -30 7
0 23 -9 36 -21 13 -12 67 -51 119 -87 52 -37 97 -70 98 -74 2 -4 10 -8 17 -8
7 0 30 -25 50 -56 21 -31 53 -65 71 -76 19 -11 34 -24 34 -30 0 -5 4 -7 9 -4
5 3 11 -3 14 -13 6 -23 99 -87 154 -106 21 -8 32 -14 25 -15 -25 0 23 -55 146
-168 20 -18 31 -36 28 -44 -7 -14 5 3 42 59 18 28 20 38 11 56 -9 18 -9 20 2
10 18 -18 27 -16 40 8 9 17 8 23 -2 30 -10 6 -11 9 -1 9 21 0 16 139 -7 173
-10 16 -22 28 -27 27 -4 -1 -11 7 -15 17 -4 10 -8 14 -8 9 -1 -5 -19 13 -40
40 -22 27 -53 58 -70 69 -16 10 -27 23 -25 27 3 4 -2 8 -11 8 -24 0 -96 60
-89 72 4 7 2 8 -5 4 -6 -4 -14 0 -17 8 -3 9 -12 16 -20 16 -7 0 -18 9 -24 20
-6 11 -9 20 -7 20 3 0 -12 18 -32 40 -20 22 -44 40 -54 40 -9 0 -16 4 -15 9 2
5 -13 23 -32 40 -23 20 -30 31 -19 31 14 0 27 -9 76 -50 7 -5 16 -10 22 -10 5
0 11 -3 13 -7 2 -5 20 -17 40 -27 21 -10 50 -32 65 -47 16 -16 36 -29 47 -29
11 0 16 -5 13 -14 -4 -9 4 -16 21 -21 15 -3 37 -15 48 -26 12 -11 26 -19 31
-17 6 2 26 -14 46 -34 20 -21 39 -38 43 -38 4 0 20 -12 36 -27 24 -23 29 -24
44 -12 16 13 16 12 6 -8 -21 -39 -13 -37 28 6 22 23 69 56 105 73 54 25 82 31
164 35 94 6 102 4 144 -21 48 -28 113 -96 128 -134 8 -21 14 -23 60 -18 57 6
69 11 69 32 0 8 7 14 15 14 13 0 19 -12 16 -32 0 -4 6 -5 15 -1 13 5 13 8 -3
26 -17 19 -17 20 1 31 11 6 26 18 35 26 37 35 83 62 96 56 8 -3 18 1 23 9 12
23 75 -13 77 -43 2 -19 -2 -22 -19 -17 -56 16 -69 15 -88 -5 -19 -21 -21 -21
-41 -3 -11 10 -17 12 -13 5 5 -8 -1 -16 -16 -21 -18 -8 -19 -10 -5 -10 10 -1
15 -5 12 -11 -3 -5 -1 -10 4 -10 6 0 11 -5 11 -11 0 -5 -6 -7 -12 -4 -7 4 -5
0 5 -8 18 -15 18 -16 -3 -27 -15 -8 -26 -8 -32 -2 -7 7 -17 3 -31 -11 -18 -18
-21 -19 -32 -3 -11 15 -13 15 -18 -5 -4 -15 -2 -19 9 -15 8 3 14 -1 14 -10 0
-8 -7 -17 -15 -20 -8 -4 -15 -16 -14 -28 0 -20 1 -20 9 -1 8 19 9 19 9 -2 1
-12 -8 -27 -18 -32 -15 -8 -22 -6 -33 11 -11 17 -16 19 -23 8 -5 -9 -4 -11 3
-6 7 4 12 1 12 -6 -1 -22 -28 -63 -41 -63 -7 0 -13 -6 -15 -13 -1 -7 0 -8 2
-3 4 6 14 6 29 -1 14 -6 22 -15 19 -19 -3 -5 3 -9 13 -10 10 0 13 -3 6 -6 -7
-2 -13 -9 -13 -14 0 -6 4 -8 9 -5 5 4 7 -2 4 -13 -7 -27 -39 -15 -55 20 -11
24 -14 26 -20 11 -4 -11 -7 -4 -7 20 -1 20 4 40 9 43 5 3 10 14 10 24 0 10 8
29 18 42 23 30 26 65 4 47 -8 -7 -26 -11 -42 -10 -15 1 -60 -5 -101 -13 -41
-8 -83 -17 -95 -19 -11 -1 -27 -7 -35 -12 -8 -5 -24 -9 -36 -9 -12 0 -30 -8
-40 -17 -10 -8 -25 -18 -33 -22 -8 -3 -5 -4 8 -2 17 3 22 1 18 -9 -3 -8 -1
-17 4 -20 6 -4 10 -13 10 -21 0 -8 -4 -13 -9 -10 -5 3 -16 -6 -25 -20 l-17
-25 -20 23 -20 23 4 -27 c5 -30 -2 -35 -21 -16 -12 12 -17 2 -13 -27 1 -5 -7
0 -18 13 -21 24 -51 21 -51 -5 0 -8 -9 -27 -20 -43 -18 -25 -18 -28 -2 -26 11
0 18 -7 20 -21 4 -24 -13 -32 -21 -10 -4 9 -6 9 -6 -1 -1 -7 -6 -10 -13 -6 -7
4 -8 3 -4 -5 4 -6 12 -9 17 -6 18 12 9 -7 -13 -27 -17 -14 -18 -17 -4 -10 27
13 77 -13 69 -36 -4 -12 0 -11 16 6 12 12 29 22 37 22 8 0 12 5 9 10 -9 14 24
25 37 12 6 -6 8 -19 4 -29 -5 -12 -9 -14 -14 -6 -4 7 -13 9 -19 5 -9 -5 -5
-13 12 -26 29 -22 32 -42 8 -54 -31 -16 -83 -1 -83 23 0 9 -4 13 -10 10 -5 -3
-10 -14 -10 -25 0 -22 -30 -35 -42 -18 -8 13 -11 27 -10 39 1 4 -7 5 -17 2
-17 -4 -19 2 -19 56 0 45 4 63 15 70 9 5 13 14 8 20 -5 9 -11 7 -22 -6 -8 -10
-11 -12 -7 -4 4 9 3 12 -3 8 -6 -4 -16 -21 -24 -39 -7 -18 -16 -35 -19 -38
-15 -12 -41 -96 -50 -161 -13 -88 1 -181 42 -304 28 -80 90 -197 125 -233 7
-7 13 -16 13 -20 0 -4 18 -27 40 -50 22 -24 40 -51 40 -60 0 -8 3 -13 6 -9 3
3 33 -23 67 -57 130 -130 385 -296 557 -363 67 -25 221 -72 300 -91 113 -27
333 -43 351 -25 6 6 -1 8 -21 5 -39 -6 -39 6 0 19 17 6 30 18 30 27 0 13 5 11
20 -8 17 -21 21 -23 30 -10 7 10 10 11 10 2 0 -7 -11 -17 -25 -22 -14 -5 -25
-12 -25 -15 0 -3 45 -4 99 -3 54 2 97 6 94 10 -2 5 4 9 14 9 90 7 143 19 196
46 29 14 54 30 55 35 2 5 10 4 18 -3 11 -9 14 -7 14 15 0 16 -5 26 -15 26 -19
0 -19 29 0 36 13 5 15 90 15 679 l0 674 -22 4 -23 4 23 2 22 1 0 444 0 443
-38 5 c-24 4 -70 27 -122 63 -127 85 -130 86 -320 85 -104 -1 -170 -6 -178
-13 -9 -7 -62 -10 -145 -10 -148 2 -182 5 -193 16 -4 4 -513 7 -1131 7 l-1123
0 0 -39z m1810 -136 c0 -8 -4 -15 -10 -15 -5 0 -10 7 -10 15 0 8 5 15 10 15 6
0 10 -7 10 -15z m583 -102 c-7 -2 -19 -2 -25 0 -7 3 -2 5 12 5 14 0 19 -2 13
-5z m-346 -35 c-3 -7 -5 -2 -5 12 0 14 2 19 5 13 2 -7 2 -19 0 -25z m353 -19
c0 -16 -4 -19 -22 -14 -36 11 -43 23 -11 19 24 -4 25 -3 8 5 -19 9 -19 10 3
10 16 1 22 -5 22 -20z m-214 -19 c24 -12 49 -18 55 -15 5 4 15 2 22 -3 7 -5
24 -12 38 -16 15 -3 52 -31 83 -62 31 -31 59 -54 62 -51 9 9 34 -19 34 -36 0
-8 7 -17 15 -21 21 -8 19 -23 -5 -29 -22 -6 -38 9 -18 16 7 2 -2 7 -21 12 -20
4 -35 14 -38 26 -3 10 -12 19 -20 19 -8 0 -34 11 -59 25 -25 14 -51 25 -59 25
-8 0 -15 4 -15 9 0 8 -38 17 -92 23 -10 1 -18 6 -18 10 0 4 -9 8 -20 8 -10 0
-24 10 -31 21 -6 12 -7 19 -2 16 5 -3 15 -2 23 4 10 6 11 9 3 9 -7 0 -13 7
-13 15 0 20 23 19 76 -5z m-36 -181 c0 -5 -4 -9 -10 -9 -5 0 -10 7 -10 16 0 8
5 12 10 9 6 -3 10 -10 10 -16z m70 -9 c0 -5 -2 -10 -4 -10 -3 0 -8 5 -11 10
-3 6 -1 10 4 10 6 0 11 -4 11 -10z m-129 -12 c1 -7 1 -17 0 -21 -1 -5 4 -7 11
-4 7 2 12 10 10 16 -1 7 2 10 8 6 8 -5 7 -11 -1 -21 -9 -11 -9 -14 1 -14 7 0
3 -9 -10 -20 -29 -25 -38 -26 -16 -1 15 17 15 19 1 25 -9 3 -13 10 -10 16 3 5
-1 10 -10 10 -9 0 -13 5 -10 10 9 14 25 12 26 -2z m99 -9 c0 -6 -4 -7 -10 -4
-5 3 -10 11 -10 16 0 6 5 7 10 4 6 -3 10 -11 10 -16z m-35 -9 c-3 -5 -1 -10 6
-10 7 0 10 -3 6 -6 -9 -9 -28 6 -22 17 4 5 8 9 11 9 3 0 2 -4 -1 -10z m85 -16
c0 -2 -9 0 -20 6 -11 6 -20 13 -20 16 0 2 9 0 20 -6 11 -6 20 -13 20 -16z m50
-14 c0 -9 3 -11 8 -4 4 6 18 8 32 4 l25 -6 -30 -11 c-26 -9 -35 -7 -53 7 -27
22 -27 26 -2 26 11 0 20 -7 20 -16z m313 -32 c14 3 18 1 13 -6 -4 -7 -2 -12 4
-12 26 0 78 -33 88 -55 8 -17 20 -25 37 -25 14 0 25 -4 25 -10 0 -5 8 -10 19
-10 10 0 24 -6 30 -14 10 -12 8 -17 -8 -26 -17 -9 -21 -8 -21 5 0 12 -6 15
-20 10 -14 -5 -20 -2 -20 9 0 11 -10 16 -34 16 -19 0 -36 4 -38 9 -1 5 -14 11
-27 13 -28 3 -64 34 -75 63 -5 15 -9 16 -15 6 -6 -9 -8 -5 -8 13 0 20 3 24 15
17 8 -5 24 -6 35 -3z m-391 -37 c-4 -10 -7 -11 -10 -3 -2 7 -8 10 -13 6 -5 -3
-9 -1 -9 5 0 5 9 9 19 8 12 -1 17 -6 13 -16z m113 -11 c-4 -6 -11 -8 -16 -5
-13 9 -11 -9 3 -23 9 -9 5 -9 -14 0 -15 7 -24 17 -21 21 3 5 -5 6 -18 2 -19
-5 -21 -4 -9 4 20 14 83 14 75 1z m-150 -14 c-18 -13 -17 -14 7 -11 20 2 25
-1 21 -12 -3 -8 -8 -10 -12 -5 -4 6 -11 5 -18 -3 -18 -20 17 -26 39 -7 11 9
24 11 35 7 10 -5 21 -8 25 -7 4 1 5 -5 2 -13 -4 -8 -2 -15 3 -15 5 0 10 -7 10
-15 0 -8 -3 -13 -5 -10 -3 3 -11 0 -18 -6 -8 -6 -14 -7 -18 0 -4 6 -12 8 -20
5 -7 -3 -13 1 -13 9 0 9 8 12 24 9 13 -2 23 1 23 7 0 6 -7 11 -15 11 -8 0 -15
5 -15 12 0 6 -9 1 -20 -12 -11 -13 -20 -18 -20 -12 0 7 -8 12 -18 12 -11 0
-27 9 -38 21 -18 20 -18 21 1 35 10 8 28 14 39 14 19 0 19 0 1 -14z m209 -25
c3 -5 -1 -11 -9 -14 -9 -4 -12 -1 -8 9 6 16 10 17 17 5z m66 -23 c0 -6 -6 -5
-15 2 -8 7 -15 14 -15 16 0 2 7 1 15 -2 8 -4 15 -11 15 -16z m-6 -27 c-2 -3
-12 3 -22 13 -16 17 -16 18 5 5 12 -7 20 -15 17 -18z m-289 9 c3 -5 -1 -10 -9
-10 -8 0 -18 -5 -22 -11 -5 -9 1 -10 21 -5 25 6 27 5 16 -8 -17 -20 -40 -20
-47 -1 -11 27 27 58 41 35z m326 -7 c13 -16 12 -17 -3 -4 -10 7 -18 15 -18 17
0 8 8 3 21 -13z m-101 -14 c0 -5 -4 -9 -8 -9 -5 0 -9 7 -9 15 0 8 4 12 9 9 4
-3 8 -9 8 -15z m-67 -19 c-5 -20 -21 -36 -28 -28 -5 4 23 48 30 48 2 0 1 -9
-2 -20z m-239 4 c13 -5 13 -10 4 -27 -6 -12 -10 -24 -9 -27 1 -3 -5 -6 -13 -8
-17 -4 -40 34 -32 54 6 15 24 18 50 8z m146 -34 c-7 -12 -7 -21 0 -25 5 -3 10
-14 9 -23 0 -14 -2 -13 -9 3 -5 11 -9 14 -9 8 -1 -12 -31 -19 -31 -7 0 3 7 12
15 20 8 9 15 21 15 27 0 7 -5 4 -11 -5 -14 -24 -29 -23 -24 2 7 34 15 41 36
30 15 -9 17 -15 9 -30z m312 14 c35 -9 65 -20 68 -23 3 -4 26 -13 53 -21 26
-7 47 -17 47 -22 0 -5 5 -6 10 -3 6 3 10 1 10 -4 0 -6 8 -11 18 -11 33 -1 294
-139 286 -152 -3 -4 8 -13 23 -20 15 -7 30 -15 33 -18 3 -3 22 -14 43 -24 40
-20 41 -23 28 -45 -6 -10 -23 -12 -60 -9 -35 3 -49 2 -45 -6 3 -6 -1 -3 -9 7
-16 20 -32 23 -21 5 5 -9 2 -8 -10 1 -13 11 -14 16 -4 22 10 7 9 9 -4 9 -10 0
-18 4 -18 10 0 5 -7 6 -17 3 -10 -4 -14 -2 -9 5 3 6 -2 13 -12 16 -10 3 -34
21 -53 39 -84 77 -105 93 -117 89 -7 -2 -12 1 -12 7 0 6 -6 11 -13 11 -7 0
-23 9 -35 20 -12 12 -22 16 -22 10 0 -6 -5 -8 -10 -5 -6 4 -8 11 -5 16 3 5 0
6 -8 4 -7 -3 -22 3 -32 15 -10 11 -22 20 -27 20 -6 0 -22 9 -36 21 -15 11 -28
16 -30 10 -2 -5 -10 -7 -18 -4 -8 3 -14 0 -14 -6 0 -20 -18 -11 -40 19 -25 35
-22 35 62 14z m-147 -14 c-20 -23 -29 -21 -19 4 3 9 13 16 22 16 13 0 12 -3
-3 -20z m-255 0 c12 -8 12 -10 1 -10 -11 0 -9 -5 5 -21 19 -22 19 -22 -4 -8
-13 8 -20 20 -17 29 3 9 -1 7 -10 -4 -16 -21 -19 -18 -9 8 7 18 13 19 34 6z
m210 -4 c0 -2 -6 -9 -14 -15 -11 -9 -16 -9 -22 0 -4 8 -3 9 4 5 7 -4 12 -2 12
3 0 6 5 11 10 11 6 0 10 -2 10 -4z m-45 -45 c-3 -6 -11 -11 -17 -11 -6 0 -6 6
2 15 14 17 26 13 15 -4z m-244 -8 c8 -9 9 -14 3 -10 -6 4 -19 -2 -29 -13 -16
-18 -16 -18 7 -14 12 2 17 2 10 -2 -6 -3 -10 -10 -7 -14 3 -5 0 -12 -6 -16 -7
-4 -9 -3 -6 3 4 6 -2 13 -13 16 -27 7 -25 32 2 51 27 19 23 19 39 -1z m73 0
c6 -15 4 -15 -18 -7 -20 8 -21 21 -1 21 8 0 16 -6 19 -14z m836 7 c0 -5 -7 -7
-15 -4 -8 4 -15 8 -15 10 0 2 7 4 15 4 8 0 15 -4 15 -10z m30 -5 c0 -21 18
-19 23 3 3 14 5 13 13 -6 6 -13 13 -23 17 -23 4 1 6 -1 5 -3 -6 -8 36 -46 50
-46 9 0 13 -3 9 -6 -9 -9 -41 4 -67 28 -13 12 -33 22 -44 23 -14 0 -22 8 -24
23 -2 12 1 22 7 22 6 0 11 -7 11 -15z m-1357 -33 c-2 -7 1 -12 6 -12 5 0 12
-7 15 -16 5 -14 4 -15 -9 -4 -13 11 -14 10 -9 -5 5 -12 4 -16 -3 -12 -6 4 -13
2 -15 -4 -4 -12 -48 23 -48 39 0 15 31 32 50 29 8 -2 14 -9 13 -15z m62 10
c21 -15 13 -28 -16 -24 -30 4 -38 17 -16 25 17 8 21 8 32 -1z m419 -8 c4 -10
2 -13 -6 -8 -8 5 -9 2 -5 -9 3 -9 3 -16 -1 -16 -19 3 -22 -3 -12 -21 6 -11 8
-20 6 -20 -12 0 -35 60 -30 74 8 21 40 21 48 0z m-127 -34 c-1 -22 -26 -27
-45 -8 -8 8 -8 17 -1 30 8 14 14 16 29 8 10 -5 18 -19 17 -30z m208 30 c3 -6
-1 -7 -9 -4 -18 7 -21 14 -7 14 6 0 13 -4 16 -10z m-445 -31 c0 -6 -4 -7 -10
-4 -5 3 -10 11 -10 16 0 6 5 7 10 4 6 -3 10 -11 10 -16z m1396 -36 c-10 -10
-19 5 -10 18 6 11 8 11 12 0 2 -7 1 -15 -2 -18z m-1361 6 c4 -6 5 -13 2 -16
-8 -7 -47 7 -47 18 0 13 37 11 45 -2z m-79 -16 c17 -23 17 -34 2 -30 -7 1 -12
-6 -12 -15 1 -10 -4 -18 -10 -18 -21 0 -27 12 -13 28 8 10 8 13 1 9 -13 -8
-27 19 -18 34 9 15 36 10 50 -8z m351 -15 c-6 -4 -16 -3 -22 3 -6 6 -5 13 5
19 9 6 17 5 22 -3 4 -6 2 -15 -5 -19z m1133 17 c0 -8 -4 -15 -10 -15 -5 0 -10
7 -10 15 0 8 5 15 10 15 6 0 10 -7 10 -15z m-1576 -3 c5 -1 3 -9 -4 -17 -10
-12 -10 -18 0 -30 12 -15 6 -35 -11 -35 -6 0 -7 5 -3 11 5 8 1 8 -14 0 -29
-15 -50 -15 -34 1 15 15 16 42 1 32 -8 -5 -8 -1 0 13 6 11 8 22 6 25 -4 3 38
3 59 0z m396 -2 c0 -5 -6 -10 -12 -10 -9 0 -8 -4 2 -10 13 -8 12 -10 -2 -10
-20 0 -21 1 -12 24 7 18 24 22 24 6z m176 -21 c3 -6 0 -15 -7 -20 -8 -5 -9 -9
-4 -9 21 0 13 -46 -10 -56 -44 -21 -73 25 -43 69 20 28 51 36 64 16z m119 -19
c0 -17 -36 -21 -47 -5 -14 19 -8 26 20 23 16 -2 27 -9 27 -18z m905 16 c0 -3
-4 -8 -10 -11 -5 -3 -10 -1 -10 4 0 6 5 11 10 11 6 0 10 -2 10 -4z m-960 -31
c0 -8 -6 -15 -14 -15 -20 0 -29 17 -14 23 22 9 28 7 28 -8z m184 9 c9 -3 14
-10 11 -15 -3 -4 -12 -6 -20 -2 -8 3 -15 1 -15 -5 0 -6 -8 -8 -18 -5 -12 3
-19 -1 -19 -11 0 -9 4 -16 9 -16 4 0 8 -5 8 -11 0 -5 -4 -8 -9 -5 -5 3 -12 -1
-15 -10 -3 -8 -10 -12 -16 -9 -5 3 -10 0 -11 -7 0 -10 -2 -10 -6 0 -2 6 -9 12
-14 12 -6 0 -7 -6 -3 -12 5 -8 0 -7 -11 2 -17 14 -18 13 -12 -3 4 -10 3 -16
-2 -12 -5 3 -13 0 -17 -7 -12 -19 -12 -49 0 -45 6 2 10 11 10 19 -1 13 2 13
29 0 l30 -15 -54 -18 c-30 -9 -48 -17 -40 -18 8 -1 12 -3 9 -6 -15 -15 -35 9
-34 41 1 27 6 36 23 40 12 3 24 12 26 19 3 7 20 23 38 36 18 12 30 18 26 12
-4 -6 1 -17 10 -24 14 -12 15 -11 9 9 -5 14 -3 22 5 22 8 0 9 4 0 13 -21 27
29 48 73 31z m-1014 -19 c0 -19 17 -19 53 -1 15 8 27 11 27 5 0 -5 -6 -9 -12
-10 -10 0 -10 -2 0 -6 6 -2 12 -9 12 -14 0 -6 -8 -5 -20 1 -11 6 -20 7 -19 3
4 -22 -3 -33 -21 -33 -12 0 -20 7 -20 17 0 13 -3 14 -12 5 -15 -15 -39 -16
-35 0 3 16 30 48 39 48 5 0 8 -7 8 -15z m580 5 c0 -5 -2 -10 -4 -10 -3 0 -8 5
-11 10 -3 6 -1 10 4 10 6 0 11 -4 11 -10z m-30 -4 c0 -2 -9 -6 -20 -9 -11 -3
-18 -1 -14 4 5 9 34 13 34 5z m-317 -62 c-13 -38 -31 -41 -39 -8 -5 20 -2 31
11 41 26 18 40 2 28 -33z m318 29 c13 -16 12 -17 -3 -4 -10 7 -18 15 -18 17 0
8 8 3 21 -13z m-411 -8 c14 -17 21 -65 9 -65 -5 0 -9 5 -9 10 0 6 -4 10 -10
10 -5 0 -7 -8 -3 -17 5 -15 3 -15 -11 2 -10 11 -14 14 -10 6 5 -11 3 -13 -10
-8 -10 4 -22 7 -27 7 -15 0 -10 32 8 52 19 22 46 23 63 3z m547 3 c12 -21 12
-35 -3 -35 -7 0 -10 5 -7 11 3 6 -6 0 -20 -13 -35 -32 -45 -21 -17 18 23 34
34 38 47 19z m379 -20 c0 -21 -9 -23 -25 -5 -12 15 -8 24 12 24 7 0 13 -9 13
-19z m-51 -8 c7 0 18 -6 24 -14 10 -12 8 -13 -11 -9 -24 6 -38 21 -37 38 0 6
3 4 6 -2 2 -7 10 -13 18 -13z m-975 -20 c0 -4 -8 -14 -17 -21 -15 -12 -16 -12
-10 4 4 11 3 16 -3 12 -6 -4 -8 -17 -6 -31 5 -25 -11 -33 -31 -13 -16 16 -4
49 21 59 22 8 46 3 46 -10z m766 -2 c4 -7 4 -10 -1 -6 -11 11 -36 -12 -28 -25
3 -6 1 -7 -5 -3 -7 4 -12 0 -13 -11 0 -16 -1 -17 -7 -1 -5 12 -12 14 -21 9 -8
-5 -10 -14 -6 -22 6 -11 5 -11 -5 -2 -19 17 -5 42 32 58 41 18 45 18 54 3z
m-152 -10 c-5 -8 -2 -9 9 -5 10 3 17 2 17 -3 0 -6 -7 -10 -16 -10 -11 0 -15
-6 -12 -18 3 -10 -1 -27 -8 -37 -13 -17 -16 -18 -30 -3 -13 12 -14 20 -5 37 9
17 9 20 -3 15 -9 -3 -18 -16 -21 -27 -14 -49 -28 -67 -42 -56 -7 6 -13 20 -13
30 0 20 47 57 79 62 12 2 27 9 33 15 15 15 21 15 12 0z m343 -13 c1 -11 -17
-8 -30 4 -4 4 0 7 10 6 10 0 19 -5 20 -10z m135 -24 c-5 -3 -13 -14 -19 -25
-9 -16 -11 -17 -16 -2 -4 10 -1 19 9 23 13 5 13 8 -3 26 -18 20 -18 20 10 2
16 -10 24 -21 19 -24z m-42 9 c0 -5 -4 -10 -10 -10 -5 0 -10 5 -10 10 0 6 5
10 10 10 6 0 10 -4 10 -10z m-976 -33 c-3 -9 -10 -17 -15 -17 -6 0 -6 8 0 19
6 10 9 21 7 23 -1 3 1 2 6 -2 5 -3 6 -14 2 -23z m842 -12 c1 -13 -2 -27 -7
-30 -5 -3 -6 1 -3 9 3 9 2 16 -4 16 -6 0 -9 8 -7 18 2 9 4 19 4 21 2 12 15
-12 17 -34z m124 16 c0 -5 3 -18 7 -28 6 -16 5 -16 -10 -4 -19 15 -23 41 -7
41 6 0 10 -4 10 -9z m-914 -30 c0 -11 -3 -18 -7 -15 -4 2 -10 -6 -13 -19 l-7
-22 -12 24 c-9 19 -8 26 8 37 25 19 31 18 31 -5z m619 0 c3 -5 1 -12 -4 -16
-6 -3 -8 -12 -5 -19 3 -7 -3 -19 -12 -27 -16 -13 -16 -12 -6 8 10 17 9 22 -5
27 -22 9 -31 -3 -13 -15 11 -8 9 -9 -10 -4 -23 5 -22 4 9 -24 l35 -31 -32 9
c-45 13 -51 19 -47 42 10 52 16 59 50 59 19 0 36 -4 40 -9z m-101 -28 c-3 -16
-5 -36 -5 -45 0 -20 -26 -32 -35 -16 -5 7 -2 8 6 3 10 -6 12 -4 7 7 -3 9 -3
19 1 23 4 4 8 15 8 26 2 27 3 29 13 29 5 0 7 -12 5 -27z m-41 -16 c-4 -19 -8
-25 -13 -16 -5 7 -3 20 3 30 15 23 16 20 10 -14z m-40 -3 c-4 -10 0 -20 10
-25 12 -7 13 -13 4 -33 -8 -16 -14 -21 -19 -13 -5 8 -8 5 -8 -7 0 -19 0 -19
-14 -1 -10 14 -11 25 -2 49 9 26 23 45 33 46 1 0 0 -7 -4 -16z m305 -9 c-6
-14 -13 -23 -15 -21 -5 5 15 46 22 46 3 0 -1 -11 -7 -25z m38 -4 c0 -11 -4
-18 -8 -15 -4 2 -11 -4 -17 -13 -6 -10 -11 -13 -11 -7 0 5 5 15 12 22 7 7 8
12 3 12 -7 0 8 14 20 20 1 0 1 -9 1 -19z m-111 1 c-14 -10 -19 -46 -6 -37 6 3
11 -1 11 -10 0 -10 5 -13 13 -9 6 4 9 3 4 -1 -12 -13 -45 -16 -52 -5 -12 19 6
70 23 70 10 0 13 -3 7 -8z m24 -14 c-10 -19 -9 -20 7 -14 15 6 17 5 7 -5 -20
-20 -41 4 -23 26 18 22 23 19 9 -7z m179 1 c-7 -5 -20 -8 -28 -8 -10 0 -11 2
-2 6 6 2 10 8 7 13 -3 4 4 6 16 3 16 -4 17 -8 7 -14z m-1027 -10 c8 -15 8 -19
0 -15 -6 4 -14 0 -18 -9 -3 -10 0 -21 7 -25 8 -5 4 -8 -13 -7 -21 2 -23 5 -14
16 10 12 9 14 -5 8 -23 -8 -23 11 -1 35 21 23 30 23 44 -3z m539 12 c0 -5 -7
-12 -16 -15 -14 -5 -15 -4 -4 9 14 17 20 19 20 6z m-100 -53 c0 -5 -4 -7 -9
-4 -4 3 -13 -6 -19 -19 -7 -15 -8 -25 -2 -25 6 0 10 5 10 11 0 5 5 7 10 4 6
-4 8 -11 5 -16 -3 -5 1 -6 9 -3 21 8 21 -19 1 -36 -8 -7 -12 -17 -8 -23 3 -6
1 -7 -6 -3 -9 6 -9 11 -1 21 8 10 6 17 -11 29 -12 8 -25 13 -29 11 -4 -3 -7 7
-7 20 0 14 4 25 9 25 6 0 8 6 5 13 -4 10 2 13 19 9 13 -2 24 -9 24 -14z m80 7
c0 -8 -4 -15 -10 -15 -5 0 -7 7 -4 15 4 8 8 15 10 15 2 0 4 -7 4 -15z m170 5
c0 -5 -4 -10 -10 -10 -5 0 -10 -5 -10 -11 0 -5 5 -7 12 -3 7 5 9 2 5 -8 -3 -9
1 -26 10 -38 15 -21 14 -21 -6 -8 -25 15 -35 40 -26 68 7 21 25 28 25 10z
m-22 -71 c10 -14 10 -18 -2 -22 -11 -4 -13 -1 -9 10 5 13 2 15 -11 10 -14 -5
-17 -3 -12 8 3 8 1 15 -5 15 -6 0 -7 5 -4 10 6 10 16 3 43 -31z m68 14 c4 4 2
7 -4 7 -7 0 -12 4 -12 9 0 12 24 9 29 -4 2 -5 -4 -14 -13 -20 -12 -7 -19 -6
-26 5 -15 24 -12 36 4 14 8 -10 18 -16 22 -11z m85 4 c-6 -8 -9 -17 -6 -21 3
-3 0 -2 -6 3 -12 10 -4 31 13 31 7 0 7 -4 -1 -13z m-476 -7 c-3 -5 0 -10 8
-10 8 0 17 -7 21 -15 8 -22 -21 -19 -34 4 -13 25 -13 31 1 31 5 0 7 -4 4 -10z
m-149 -36 c-9 -24 2 -34 27 -25 31 12 51 3 36 -15 -9 -11 -8 -14 1 -14 8 0 11
-3 8 -6 -4 -3 -17 0 -30 8 -25 15 -56 17 -76 5 -7 -5 -12 -3 -12 3 0 6 7 13
15 16 8 3 17 14 20 25 4 10 9 19 12 19 3 0 2 -7 -1 -16z m405 -1 c13 -16 12
-17 -3 -4 -17 13 -22 21 -14 21 2 0 10 -8 17 -17z m-267 -2 c3 -5 -1 -11 -9
-14 -9 -4 -12 -1 -8 9 6 16 10 17 17 5z m536 5 c0 -3 -4 -8 -10 -11 -5 -3 -10
-1 -10 4 0 6 5 11 10 11 6 0 10 -2 10 -4z m535 -7 c11 -17 -1 -21 -15 -4 -8 9
-8 15 -2 15 6 0 14 -5 17 -11z m-1030 -19 c3 -5 2 -10 -4 -10 -5 0 -13 5 -16
10 -3 6 -2 10 4 10 5 0 13 -4 16 -10z m35 -10 c0 -5 0 -13 -1 -16 -1 -8 22
-24 34 -24 5 0 5 6 1 13 -5 7 0 6 11 -3 17 -14 18 -13 12 4 -6 16 -5 17 8 6
12 -10 13 -15 3 -28 -11 -13 -10 -14 10 -8 20 7 22 4 22 -33 0 -31 -3 -39 -14
-35 -8 3 -19 -3 -26 -15 -6 -12 -15 -21 -21 -21 -5 0 -1 10 11 22 18 20 19 23
4 39 -9 10 -14 25 -11 33 4 10 1 13 -9 9 -7 -3 -14 0 -14 7 0 6 -5 8 -10 5 -6
-3 -15 6 -20 20 -12 33 -12 35 0 35 6 0 10 -4 10 -10z m-89 -19 c17 -14 19
-19 8 -17 -18 2 -56 36 -41 36 5 0 20 -9 33 -19z m34 9 c3 -5 -1 -10 -9 -10
-9 0 -16 5 -16 10 0 6 4 10 9 10 6 0 13 -4 16 -10z m159 -5 c11 -8 17 -17 14
-21 -4 -3 -16 4 -27 15 -24 24 -15 28 13 6z m229 1 c4 -10 1 -13 -8 -9 -8 3
-12 9 -9 14 7 12 11 11 17 -5z m-555 -21 c-3 -3 -9 2 -12 12 -6 14 -5 15 5 6
7 -7 10 -15 7 -18z m615 10 c-3 -9 -8 -14 -10 -11 -3 3 -2 9 2 15 9 16 15 13
8 -4z m-588 -15 c3 -5 1 -10 -4 -10 -6 0 -11 5 -11 10 0 6 2 10 4 10 3 0 8 -4
11 -10z m110 -21 c-3 -4 1 -10 7 -13 7 -3 0 -3 -17 1 -40 8 -45 11 -39 28 5
11 11 11 30 3 13 -6 21 -14 19 -19z m-155 13 c0 -4 -10 -13 -22 -21 -23 -14
-23 -14 -4 8 20 22 26 25 26 13z m278 -70 c2 -12 -2 -22 -8 -22 -6 0 -8 5 -5
11 4 6 -8 24 -26 41 l-34 31 35 -19 c20 -12 36 -29 38 -42z m763 35 c-8 -8
-14 -7 -23 2 -10 11 -10 13 0 7 6 -4 12 -2 12 4 0 6 5 8 11 4 8 -4 8 -9 0 -17z
m219 9 c0 -3 -4 -8 -10 -11 -5 -3 -10 -1 -10 4 0 6 5 11 10 11 6 0 10 -2 10
-4z m-1306 -14 c2 -4 0 -14 -6 -22 -8 -12 -9 -11 -4 4 5 14 2 17 -9 12 -9 -3
-13 -2 -10 4 7 12 22 13 29 2z m231 -1 c-3 -5 2 -17 11 -25 14 -15 14 -16 -3
-16 -10 0 -25 5 -33 11 -13 9 -12 10 3 5 9 -3 17 -1 17 4 0 6 -6 10 -12 10 -9
0 -8 4 2 10 19 12 23 12 15 1z m815 -23 c0 -4 0 -11 -1 -14 0 -4 5 -11 13 -16
9 -6 5 -7 -12 -4 -25 6 -25 6 -2 -5 27 -15 28 -29 2 -36 -11 -3 -17 -10 -13
-16 3 -6 1 -7 -5 -3 -9 5 -9 13 -2 27 8 14 7 19 -3 19 -9 0 -12 9 -9 28 3 25
32 43 32 20z m62 -28 c-2 -19 -5 -42 -7 -52 -3 -15 1 -17 23 -12 26 5 26 5 8
-10 -11 -9 -24 -16 -30 -16 -6 0 4 -13 22 -30 18 -16 35 -30 37 -30 9 0 -10
36 -24 47 -14 11 -14 12 2 13 9 0 17 -4 17 -10 0 -5 5 -10 10 -10 6 0 10 7 10
15 0 8 5 15 10 15 6 0 10 12 10 28 0 15 5 34 10 42 8 11 9 5 7 -22 -4 -36 -3
-38 27 -40 17 0 39 -1 48 0 11 1 15 -3 12 -13 -4 -8 -11 -12 -16 -9 -24 15
-83 9 -97 -9 -7 -10 -10 -21 -6 -25 4 -4 10 -1 12 6 3 6 13 12 23 12 10 0 22
5 25 10 4 7 13 6 26 -1 16 -8 18 -13 9 -24 -7 -8 -10 -20 -7 -27 3 -8 6 -6 6
5 1 10 6 15 11 12 6 -3 10 2 10 12 1 17 1 17 11 0 8 -14 6 -22 -10 -36 -26
-22 -27 -30 -3 -26 9 1 16 8 15 14 -2 6 2 11 7 11 17 0 11 -15 -15 -38 -30
-26 -35 -27 -35 -7 0 14 -4 14 -35 1 -19 -8 -35 -11 -35 -5 0 5 -9 9 -20 9
-11 0 -20 6 -20 14 0 8 -4 17 -10 21 -5 3 -8 -7 -7 -25 1 -16 5 -30 10 -30 4
0 7 -5 7 -11 0 -16 -25 -5 -25 12 0 8 -4 20 -8 27 -5 6 -5 17 -2 22 3 6 1 10
-5 10 -5 0 -10 -12 -9 -27 0 -16 -3 -39 -7 -53 -7 -23 -6 -24 9 -11 11 9 17
10 17 2 0 -6 -5 -11 -11 -11 -6 0 -9 -7 -6 -15 4 -8 2 -17 -3 -20 -6 -4 -10
-10 -10 -15 0 -5 11 2 24 15 20 20 29 23 55 15 38 -11 41 -3 4 12 -22 9 -24
12 -10 15 9 3 17 9 17 14 0 6 5 7 10 4 6 -3 17 1 25 9 15 15 45 12 45 -4 0
-16 -22 -23 -30 -10 -4 7 -10 8 -14 2 -3 -5 4 -18 16 -28 12 -11 19 -14 15 -9
-3 7 10 11 33 12 37 2 39 1 27 -18 -6 -10 -15 -19 -20 -19 -4 0 -5 5 -2 10 3
6 1 10 -4 10 -14 0 -14 -6 1 -33 16 -29 18 -47 6 -47 -6 0 -8 7 -4 15 3 8 1
15 -4 15 -6 0 -10 -6 -10 -13 0 -7 -5 -18 -12 -25 -6 -6 -12 -21 -13 -32 -1
-15 1 -17 12 -9 7 6 10 16 7 21 -4 6 3 5 15 -1 11 -7 21 -18 21 -25 0 -13 -27
-31 -42 -28 -3 1 -8 -4 -11 -12 -4 -9 5 -12 29 -11 32 1 33 0 16 -19 -15 -17
-15 -19 -1 -13 18 6 17 -4 -3 -70 -11 -37 -33 -46 -23 -10 5 17 4 18 -4 7 -8
-12 -12 -9 -20 13 -13 33 -36 35 -53 5 -7 -13 -21 -24 -30 -24 -10 -1 -15 2
-12 7 3 5 -2 9 -10 9 -9 0 -16 -4 -16 -10 0 -16 -14 -12 -38 10 -12 12 -22 17
-22 13 0 -4 12 -18 27 -30 33 -29 25 -40 -10 -13 -14 11 -31 20 -37 20 -7 0
-10 6 -7 14 3 7 0 19 -6 26 -9 10 -9 11 2 5 10 -6 12 -4 6 6 -12 18 -14 49 -3
49 4 0 8 5 8 11 0 5 -4 8 -9 5 -4 -3 -17 4 -27 16 -12 13 -15 22 -8 25 7 2 4
24 -10 64 -17 49 -19 61 -7 68 9 6 10 11 2 15 -7 5 -4 14 9 29 11 12 18 27 16
33 -3 7 2 15 10 18 9 3 14 12 11 19 -2 6 0 23 5 36 6 17 5 27 -4 32 -14 9 -28
3 -28 -12 0 -6 4 -8 9 -5 5 4 7 -2 4 -12 -5 -22 -55 -54 -68 -44 -6 4 -10 14
-10 22 0 8 -8 14 -18 14 -15 -2 -16 1 -5 13 7 8 14 27 16 41 4 33 5 34 25 26
12 -4 15 -13 10 -33 -3 -14 -11 -29 -17 -33 -6 -4 -8 -10 -4 -13 3 -3 17 8 31
25 21 24 31 29 52 24 18 -4 25 -2 25 9 0 8 7 20 15 27 10 9 12 16 5 25 -6 8
-5 16 3 25 9 10 9 11 0 6 -15 -8 -16 -5 -7 19 4 9 14 15 23 13 12 -3 15 -12
13 -38z m-1168 15 c-4 -8 -13 -15 -22 -15 -13 0 -12 3 4 15 24 18 25 18 18 0z
m967 -18 c-10 -9 -11 -8 -5 6 3 10 9 15 12 12 3 -3 0 -11 -7 -18z m92 -2 c-3
-8 -11 -15 -19 -15 -8 0 -14 -4 -14 -10 0 -5 -4 -10 -8 -10 -5 0 -9 7 -9 14 0
8 5 14 11 13 6 -1 10 3 9 10 -2 8 4 10 14 6 12 -5 14 -3 8 7 -5 8 -4 11 3 6 6
-4 9 -13 5 -21z m-1009 -21 c-13 -11 -14 -14 -4 -11 8 2 20 14 26 26 10 19 12
20 18 5 7 -19 9 -17 -23 -34 -31 -16 -46 0 -23 28 9 12 19 17 21 11 1 -6 -5
-17 -15 -25z m235 2 c-3 -3 -11 5 -18 17 -13 21 -12 21 5 5 10 -10 16 -20 13
-22z m186 25 c3 -5 1 -12 -5 -16 -5 -3 -10 1 -10 9 0 18 6 21 15 7z m-330 -13
c-19 -11 -19 -11 0 -18 11 -4 30 -3 43 1 33 13 59 11 65 -4 3 -9 -5 -12 -28
-12 -26 1 -32 -2 -27 -14 5 -14 3 -14 -11 -2 -11 9 -17 10 -17 2 0 -6 -5 -11
-11 -11 -6 0 -9 7 -5 15 9 26 -14 16 -26 -10 -10 -22 -19 -29 -38 -27 -3 0 -7
-8 -8 -19 -5 -52 -3 -49 -44 -53 -19 -2 -17 43 3 49 18 6 56 55 42 55 -13 -1
-43 -27 -38 -32 3 -3 -6 -13 -20 -22 -24 -16 -25 -16 -25 4 0 14 11 26 34 35
19 8 38 19 41 25 4 6 10 8 14 6 4 -3 18 6 29 19 12 14 28 25 34 25 7 0 4 -6
-7 -12z m852 -10 c-3 -8 -6 -5 -6 6 -1 11 2 17 5 13 3 -3 4 -12 1 -19z m-57
-3 c-8 -9 -9 -15 -2 -15 6 0 14 5 17 10 3 6 11 10 18 10 6 0 1 -7 -11 -16 -26
-18 -49 -10 -31 12 6 8 14 14 16 14 3 0 0 -7 -7 -15z m284 -10 c11 -8 17 -18
13 -21 -4 -4 -13 -2 -20 5 -8 6 -23 8 -33 4 -17 -6 -17 -5 -5 10 16 20 20 21
45 2z m86 6 c0 -6 -4 -13 -10 -16 -5 -3 -10 1 -10 9 0 9 5 16 10 16 6 0 10 -4
10 -9z m-1003 -8 c-4 -3 -1 -13 6 -21 10 -13 9 -15 -5 -10 -10 4 -19 1 -22 -8
-3 -8 -11 -14 -18 -13 -10 0 -10 2 0 6 6 2 12 10 12 17 0 12 19 36 29 36 2 0
1 -3 -2 -7z m1039 -13 c0 -22 -11 -26 -22 -9 -5 9 5 22 21 29 1 0 1 -9 1 -20z
m-288 -15 c-3 -3 -9 2 -12 12 -6 14 -5 15 5 6 7 -7 10 -15 7 -18z m322 21 c0
-3 -4 -8 -10 -11 -5 -3 -10 -1 -10 4 0 6 5 11 10 11 6 0 10 -2 10 -4z m20 -16
c0 -5 -5 -10 -11 -10 -5 0 -7 5 -4 10 3 6 8 10 11 10 2 0 4 -4 4 -10z m-445
-10 c3 -5 1 -10 -4 -10 -6 0 -11 5 -11 10 0 6 2 10 4 10 3 0 8 -4 11 -10z
m-762 -32 c4 -14 2 -16 -13 -8 -24 13 -27 13 -33 -4 -4 -10 -1 -13 9 -9 8 3
14 -1 14 -11 0 -9 5 -16 11 -16 5 0 7 -5 3 -11 -4 -7 -9 -7 -13 -2 -3 6 -16
15 -28 21 -29 16 -37 -7 -10 -30 18 -16 18 -18 2 -18 -15 0 -16 -2 -4 -17 12
-14 12 -16 0 -8 -10 5 -12 4 -7 -3 4 -7 14 -12 22 -12 8 0 12 -5 9 -10 -4 -6
-11 -8 -16 -5 -5 4 -9 2 -9 -4 0 -14 -59 18 -69 38 -11 20 -4 34 27 50 13 7
22 21 22 35 0 39 74 60 83 24z m50 2 c-3 -11 -9 -20 -14 -20 -10 0 -12 24 -2
33 13 13 21 7 16 -13z m21 -32 c-3 -4 -1 -8 5 -8 5 0 11 3 14 8 2 4 2 1 1 -5
-2 -7 0 -13 5 -13 4 0 8 -7 8 -15 0 -9 -4 -14 -9 -13 -5 2 -9 7 -8 12 2 9 -19
26 -33 26 -5 0 -5 -5 -1 -12 4 -7 3 -8 -4 -4 -8 5 -8 13 0 32 8 17 14 21 19
12 4 -7 5 -16 3 -20z m668 0 c-7 -7 -12 -8 -12 -2 0 14 12 26 19 19 2 -3 -1
-11 -7 -17z m-914 -29 c9 -13 8 -20 -4 -30 -12 -10 -13 -9 -8 7 5 19 5 19 -10
0 -8 -10 -13 -23 -9 -29 3 -6 1 -7 -5 -3 -7 4 -12 2 -12 -3 0 -6 8 -11 18 -12
9 0 12 -3 5 -5 -7 -3 -9 -13 -6 -22 5 -14 3 -15 -7 -5 -23 21 -22 55 2 80 22
23 22 25 6 37 -10 7 -18 16 -18 20 0 10 36 -16 48 -35z m912 -10 c0 -5 -4 -9
-8 -9 -5 0 -9 7 -9 15 0 8 4 12 9 9 4 -3 8 -9 8 -15z m150 1 c0 -5 -5 -10 -11
-10 -6 0 -17 -6 -25 -14 -14 -15 -54 -11 -54 6 0 5 9 4 20 -2 11 -6 20 -7 20
-2 0 5 10 14 23 20 28 14 27 14 27 2z m-812 -15 c4 -3 0 -10 -7 -15 -16 -10
-63 9 -55 22 5 8 52 4 62 -7z m689 -7 c-3 -8 -6 -5 -6 6 -1 11 2 17 5 13 3 -3
4 -12 1 -19z m-901 -56 c-4 -24 -33 -39 -47 -25 -10 10 -9 17 4 31 9 10 17 25
17 33 1 10 4 9 14 -4 8 -10 13 -26 12 -35z m164 15 c0 -5 -4 -5 -10 -2 -5 3
-7 0 -4 -9 3 -9 13 -12 22 -9 14 5 15 4 4 -8 -11 -12 -16 -10 -33 10 -15 18
-17 27 -8 38 10 11 14 11 20 1 5 -7 9 -17 9 -21z m30 3 c0 -5 -5 -10 -11 -10
-5 0 -7 5 -4 10 3 6 8 10 11 10 2 0 4 -4 4 -10z m690 -12 c11 -12 17 -24 14
-27 -3 -3 -9 0 -13 7 -4 7 -16 10 -27 6 -16 -5 -16 -4 -4 5 13 10 13 12 0 21
-9 6 -10 10 -3 10 7 0 21 -10 33 -22z m60 2 c0 -5 -5 -10 -11 -10 -5 0 -7 5
-4 10 3 6 8 10 11 10 2 0 4 -4 4 -10z m346 -17 c-10 -10 -19 5 -10 18 6 11 8
11 12 0 2 -7 1 -15 -2 -18z m-1166 -15 c0 -4 -9 -8 -19 -8 -11 0 -22 -8 -24
-17 -4 -14 -5 -13 -6 4 -1 21 10 30 37 30 6 0 12 -4 12 -9z m844 -18 c-6 -6
-10 -3 -10 10 0 13 4 16 10 10 7 -7 7 -13 0 -20z m-926 2 c4 -12 0 -12 -19 -2
-23 13 -24 12 -6 -7 17 -19 14 -33 -7 -33 -6 0 -4 5 4 10 13 8 12 10 -2 10
-18 0 -24 20 -11 34 11 10 36 3 41 -12z m-75 -19 c-3 -8 2 -13 13 -13 9 0 15
-3 11 -6 -3 -3 -15 -3 -26 1 -24 7 -29 32 -7 32 8 0 12 -6 9 -14z m257 9 c0
-5 -12 -15 -26 -22 -20 -11 -24 -19 -19 -39 6 -22 5 -23 -10 -11 -15 12 -19
12 -29 -2 -8 -10 -17 -14 -25 -8 -11 6 -9 10 6 18 10 6 25 22 33 37 9 18 20
25 32 22 10 -3 18 -1 18 4 0 5 5 9 10 9 6 0 10 -4 10 -8z m-99 -19 c3 1 -1 -4
-7 -12 -15 -17 -35 -6 -27 15 4 10 9 12 18 4 6 -5 14 -9 16 -7z m-81 -27 c0
-3 -4 -8 -10 -11 -5 -3 -10 -1 -10 4 0 6 5 11 10 11 6 0 10 -2 10 -4z m919
-44 c-5 -2 -9 -11 -9 -19 0 -9 -2 -14 -5 -11 -3 3 -2 20 2 38 5 28 8 31 13 15
4 -11 3 -21 -1 -23z m479 13 c-2 -1 -16 -5 -33 -9 l-30 -6 25 14 c14 8 28 12
33 9 5 -3 7 -6 5 -8z m-1378 -15 c0 -5 -4 -10 -10 -10 -5 0 -10 5 -10 10 0 6
5 10 10 10 6 0 10 -4 10 -10z m555 -38 c-16 -2 -36 -8 -42 -14 -9 -7 -13 -7
-13 0 0 13 61 32 75 23 6 -3 -3 -8 -20 -9z m69 0 c-6 -4 -14 -14 -17 -22 -4
-10 -6 -8 -6 8 -1 15 5 22 17 22 10 0 13 -3 6 -8z m51 -12 c3 -5 1 -10 -4 -10
-6 0 -11 5 -11 10 0 6 2 10 4 10 3 0 8 -4 11 -10z m570 -10 c-3 -5 -11 -10
-16 -10 -6 0 -7 5 -4 10 3 6 11 10 16 10 6 0 7 -4 4 -10z m-700 -32 c5 4 5 1
1 -6 -6 -10 -11 -10 -22 -1 -8 6 -14 14 -14 16 0 3 6 0 13 -6 8 -6 18 -7 22
-3z m165 -20 c0 -5 -4 -8 -10 -8 -5 0 -10 5 -10 10 0 6 -7 10 -16 10 -8 0 -12
4 -9 10 6 10 45 -9 45 -22z m-35 -18 c3 -5 -1 -10 -9 -10 -9 0 -16 5 -16 10 0
6 4 10 9 10 6 0 13 -4 16 -10z m-65 -10 c0 -5 -10 -15 -22 -21 l-23 -12 20 21
c23 24 25 25 25 12z m123 -27 c3 -5 -6 -9 -19 -9 -13 -1 -21 2 -18 7 6 11 31
12 37 2z m287 -43 c0 -5 -7 -7 -15 -4 -8 4 -15 8 -15 10 0 2 7 4 15 4 8 0 15
-4 15 -10z m87 -5 c0 -8 -4 -12 -9 -9 -5 3 -6 10 -3 15 9 13 12 11 12 -6z
m-42 -25 c3 -5 1 -10 -4 -10 -6 0 -11 5 -11 10 0 6 2 10 4 10 3 0 8 -4 11 -10z
m15 -37 c0 -2 -4 -1 -10 2 -5 3 -10 1 -10 -4 0 -19 -27 -12 -33 8 -3 11 -3 22
0 25 5 5 53 -23 53 -31z m-19 -30 c-10 -4 -11 -7 -1 -13 7 -5 9 -13 5 -21 -6
-9 -10 -8 -15 7 -9 22 -4 34 13 33 8 0 7 -3 -2 -6z m44 -3 c-3 -5 -12 -10 -18
-10 -7 0 -6 4 3 10 19 12 23 12 15 0z m26 -127 c-12 -20 -14 -14 -5 12 4 9 9
14 11 11 3 -2 0 -13 -6 -23z"/>
<path d="M2905 3940 c3 -5 8 -10 11 -10 2 0 4 5 4 10 0 6 -5 10 -11 10 -5 0
-7 -4 -4 -10z"/>
<path d="M1506 3871 c-17 -19 -17 -19 3 -14 12 3 21 12 21 19 0 18 -4 18 -24
-5z"/>
<path d="M1971 3754 c0 -11 3 -14 6 -6 3 7 2 16 -1 19 -3 4 -6 -2 -5 -13z"/>
<path d="M2010 3656 c7 -7 13 -7 20 0 6 6 3 10 -10 10 -13 0 -16 -4 -10 -10z"/>
<path d="M1895 3430 c3 -5 11 -10 16 -10 6 0 7 5 4 10 -3 6 -11 10 -16 10 -6
0 -7 -4 -4 -10z"/>
<path d="M2796 3253 c-9 -23 1 -28 18 -10 13 13 13 16 2 20 -8 3 -17 -1 -20
-10z"/>
<path d="M2525 3230 c-10 -11 -13 -20 -8 -20 13 0 38 29 31 35 -3 3 -13 -4
-23 -15z"/>
<path d="M2650 3242 c0 -5 7 -9 15 -9 8 0 12 4 9 9 -3 4 -9 8 -15 8 -5 0 -9
-4 -9 -8z"/>
<path d="M2725 3210 c-3 -6 1 -7 9 -4 18 7 21 14 7 14 -6 0 -13 -4 -16 -10z"/>
<path d="M2755 3190 c-7 -12 22 -12 50 0 17 7 15 9 -12 9 -17 1 -35 -3 -38 -9z"/>
<path d="M2633 3103 c4 -6 -6 -16 -23 -22 -32 -11 -39 -25 -16 -34 10 -4 13
-1 10 8 -4 9 3 16 20 21 28 7 33 18 14 30 -6 4 -8 3 -5 -3z"/>
<path d="M2696 3082 c-3 -4 4 -9 15 -9 23 -2 25 3 4 10 -8 4 -16 3 -19 -1z"/>
<path d="M2670 3050 c0 -5 5 -10 11 -10 5 0 7 5 4 10 -3 6 -8 10 -11 10 -2 0
-4 -4 -4 -10z"/>
<path d="M2765 3050 c-3 -6 1 -7 9 -4 9 3 16 1 16 -6 0 -6 5 -8 10 -5 6 3 10
1 10 -6 0 -7 3 -9 7 -5 5 4 -1 14 -11 22 -23 17 -33 18 -41 4z"/>
<path d="M2735 3040 c-3 -5 -1 -10 4 -10 6 0 11 5 11 10 0 6 -2 10 -4 10 -3 0
-8 -4 -11 -10z"/>
<path d="M2570 3021 c0 -25 6 -27 13 -6 4 8 2 17 -3 20 -6 4 -10 -3 -10 -14z"/>
<path d="M2695 3020 c-3 -5 -1 -10 5 -10 6 0 9 -3 7 -7 -3 -5 6 -9 19 -9 16
-1 24 3 24 15 0 12 -2 13 -9 3 -7 -11 -11 -10 -24 2 -10 10 -18 12 -22 6z"/>
<path d="M2616 2905 c-3 -9 -6 -26 -5 -38 1 -14 4 -9 9 13 9 37 7 52 -4 25z"/>
<path d="M2755 2860 c3 -5 12 -7 20 -3 21 7 19 13 -6 13 -11 0 -18 -4 -14 -10z"/>
<path d="M3220 4990 c19 -13 30 -13 30 0 0 6 -10 10 -22 10 -19 0 -20 -2 -8
-10z"/>
<path d="M23 4723 c-22 -4 -23 -9 -23 -104 0 -107 -1 -104 59 -113 18 -3 38
-9 44 -15 18 -18 27 -13 25 14 -1 14 -8 25 -15 25 -7 0 -16 18 -19 40 -4 22
-10 37 -15 34 -9 -5 -12 16 -13 85 -1 36 -7 41 -43 34z"/>
<path d="M145 4470 c-3 -6 -2 -10 2 -10 5 0 17 -13 26 -30 10 -16 24 -30 31
-30 8 0 16 -7 20 -15 3 -8 10 -15 16 -15 16 0 40 -26 40 -43 0 -21 72 -88 88
-82 7 3 18 5 23 5 17 0 9 20 -8 21 -12 0 -13 2 -5 6 16 6 -3 33 -23 33 -7 0
-16 7 -19 16 -3 9 -11 12 -18 8 -8 -5 -9 -2 -5 9 4 11 1 17 -8 17 -8 0 -12 6
-9 14 3 8 -6 25 -20 37 -19 17 -23 25 -14 31 10 6 8 8 -4 8 -9 0 -23 -6 -31
-14 -12 -12 -16 -12 -30 2 -31 33 -46 42 -52 32z"/>
<path d="M1402 4230 c-34 -21 -42 -40 -17 -40 8 0 16 -8 17 -17 1 -10 2 -27 3
-38 1 -11 3 -25 4 -32 1 -12 161 54 161 67 0 3 -15 21 -33 38 -42 41 -91 49
-135 22z"/>
<path d="M390 4220 c19 -13 30 -13 30 0 0 6 -10 10 -22 10 -19 0 -20 -2 -8
-10z"/>
<path d="M429 4182 c7 -12 21 -22 31 -22 11 0 19 -5 18 -11 -2 -6 3 -14 10
-16 8 -3 12 6 12 26 0 26 -4 31 -24 31 -13 0 -32 3 -41 7 -15 5 -16 3 -6 -15z"/>
<path d="M1475 4039 c-4 -6 -5 -12 -2 -15 2 -3 7 2 10 11 7 17 1 20 -8 4z"/>
<path d="M1434 4005 c-10 -8 -14 -15 -8 -15 6 0 17 7 24 15 16 19 9 19 -16 0z"/>
<path d="M1910 4006 c0 -9 5 -16 10 -16 6 0 10 4 10 9 0 6 -4 13 -10 16 -5 3
-10 -1 -10 -9z"/>
<path d="M647 3978 c5 -7 20 -30 33 -50 14 -21 29 -38 33 -38 4 0 24 -11 44
-24 19 -14 42 -22 49 -19 19 7 7 23 -17 23 -11 0 -18 4 -14 10 3 5 -8 16 -25
25 -17 9 -28 20 -24 26 3 6 -2 19 -12 30 -13 14 -20 16 -31 8 -10 -9 -13 -8
-13 5 0 9 -7 16 -16 16 -11 0 -14 -4 -7 -12z"/>
<path d="M1350 3780 c0 -5 5 -10 10 -10 6 0 10 5 10 10 0 6 -4 10 -10 10 -5 0
-10 -4 -10 -10z"/>
<path d="M1312 3760 c0 -14 2 -19 5 -12 2 6 2 18 0 25 -3 6 -5 1 -5 -13z"/>
<path d="M2 3598 c3 -70 4 -73 26 -71 13 2 49 -10 80 -25 77 -38 102 -43 132
-27 20 12 22 14 6 15 -11 0 -16 5 -13 14 3 8 -8 19 -29 29 -19 9 -34 22 -34
29 0 6 -3 8 -6 5 -4 -4 -24 7 -44 23 -21 17 -43 30 -49 30 -6 0 -11 4 -11 8 0
4 -14 16 -30 26 l-31 18 3 -74z"/>
<path d="M1070 3600 c-1 -23 -2 -23 -10 -5 -6 13 -9 15 -9 5 0 -8 3 -22 9 -30
8 -12 10 -12 15 2 4 9 5 25 2 35 -3 13 -5 11 -7 -7z"/>
<path d="M1092 3590 c0 -14 2 -19 5 -12 2 6 2 18 0 25 -3 6 -5 1 -5 -13z"/>
<path d="M355 3060 c3 -5 8 -10 11 -10 2 0 4 5 4 10 0 6 -5 10 -11 10 -5 0 -7
-4 -4 -10z"/>
<path d="M494 3015 c-4 -8 -10 -13 -14 -10 -14 9 -23 -16 -11 -28 15 -15 14
-37 -3 -37 -16 0 -26 -21 -26 -54 0 -42 60 -75 74 -41 3 8 -2 35 -12 60 -11
32 -13 48 -6 53 6 4 11 22 11 40 0 35 -4 40 -13 17z"/>
<path d="M1145 2535 c8 -37 58 -136 88 -173 109 -133 266 -241 470 -321 132
-51 236 -76 402 -96 194 -23 398 -13 593 30 40 9 80 14 88 11 9 -4 12 -2 8 5
-4 8 1 9 16 4 12 -4 20 -3 17 1 -3 5 22 10 54 12 34 1 59 -2 59 -8 0 -5 -6 -9
-12 -8 -7 2 -12 -2 -11 -9 3 -14 -32 -27 -48 -17 -7 4 -9 3 -6 -3 4 -7 -24
-22 -71 -38 -42 -15 -86 -31 -97 -35 -43 -18 -88 -30 -93 -25 -3 3 -10 1 -16
-3 -6 -5 -31 -14 -56 -21 -25 -7 -53 -17 -62 -22 -10 -5 -25 -9 -33 -9 -9 0
-13 -4 -10 -10 3 -5 -1 -10 -10 -10 -13 0 -15 -7 -9 -35 4 -23 2 -35 -5 -35
-6 0 -11 -9 -11 -20 0 -11 -4 -20 -10 -20 -5 0 -10 -5 -10 -11 0 -7 10 -9 25
-5 27 7 35 -8 10 -18 -8 -3 -15 -14 -15 -25 0 -10 -7 -22 -16 -25 -9 -4 -14
-13 -10 -21 3 -8 1 -15 -3 -15 -5 0 -11 -7 -14 -14 -4 -10 -1 -13 9 -9 8 3 14
-1 14 -11 0 -11 -9 -16 -27 -16 -25 0 -26 0 -8 -20 18 -19 17 -20 -5 -20 -15
0 -20 -4 -16 -15 3 -8 0 -14 -7 -12 -7 1 -11 -8 -9 -23 1 -15 -1 -20 -6 -13
-6 10 -13 9 -31 -3 -17 -13 -21 -22 -16 -44 3 -15 2 -31 -3 -34 -6 -3 -8 -16
-6 -29 3 -17 1 -16 -8 6 -17 38 -30 34 -22 -8 4 -22 2 -35 -5 -35 -6 0 -8 7
-5 15 4 8 2 15 -2 15 -14 0 -40 -20 -29 -21 6 0 -2 -4 -17 -9 -15 -4 -44 -4
-64 0 -24 6 -43 5 -54 -3 -14 -8 -47 -6 -134 8 -64 10 -119 22 -122 27 -3 4
-10 6 -16 2 -5 -3 -24 1 -41 9 -18 8 -62 29 -99 47 -128 59 -321 269 -395 428
-19 40 -41 76 -49 79 -7 3 -14 16 -14 28 0 37 -18 75 -36 75 -9 0 -14 6 -11
13 3 7 -4 19 -14 25 -23 15 -26 47 -4 38 21 -8 19 7 -5 27 -26 22 -29 21 -23
-2 6 -25 -17 -39 -29 -17 -9 15 -11 15 -28 -6 -15 -20 -17 -32 -9 -68 13 -69
10 -73 -26 -46 -16 12 -17 16 -6 30 11 13 11 19 0 33 -8 9 -12 26 -11 37 3 17
1 19 -10 8 -7 -7 -13 -27 -13 -45 0 -23 -5 -32 -17 -31 -13 1 -14 -4 -7 -29 5
-16 6 -34 3 -38 -6 -11 -44 8 -60 29 -7 10 -13 11 -17 5 -4 -6 6 -25 22 -41
23 -25 25 -32 13 -37 -9 -3 -19 -1 -22 6 -6 8 -13 8 -29 0 -27 -15 -27 -31 -1
-31 11 0 20 -3 20 -7 0 -5 4 -24 9 -44 8 -35 7 -36 -21 -34 -16 1 -31 -2 -34
-7 -3 -5 -12 -4 -19 2 -7 6 -15 7 -18 3 -7 -12 34 -101 50 -107 8 -3 11 -2 8
4 -3 5 9 7 31 4 24 -3 43 1 53 10 9 7 26 17 38 20 18 6 20 3 16 -12 -4 -16 0
-19 21 -15 30 6 34 -8 10 -32 -10 -10 -26 -14 -38 -11 -17 4 -26 -2 -40 -24
-9 -17 -26 -30 -37 -30 -10 0 -19 -4 -19 -9 0 -5 -10 -12 -22 -16 -18 -5 -19
-8 -8 -12 32 -13 41 -61 15 -83 -12 -10 -15 -10 -15 0 0 8 -3 10 -6 7 -4 -3 1
-21 9 -40 9 -18 14 -46 11 -60 -3 -19 0 -27 10 -27 8 0 33 -18 57 -41 33 -32
47 -39 68 -35 14 3 20 3 14 0 -21 -9 -15 -23 7 -17 11 3 20 9 20 13 0 4 11 12
24 18 20 9 25 8 30 -4 9 -22 7 -26 -6 -18 -7 4 -8 3 -4 -4 4 -6 -3 -21 -15
-33 -18 -18 -25 -20 -41 -10 -15 9 -19 9 -17 -1 3 -17 -22 -68 -33 -68 -4 0
-8 6 -8 13 -1 6 -7 1 -15 -13 -9 -16 -15 -19 -15 -10 -1 10 -5 7 -12 -8 -6
-12 -16 -22 -21 -22 -6 0 -8 3 -4 6 3 4 0 13 -8 20 -7 8 -15 18 -17 24 -1 5
-14 11 -27 13 -13 2 -29 14 -37 28 -11 21 -10 27 9 48 12 13 16 21 9 17 -7 -4
-15 -1 -18 8 -3 9 -10 16 -15 16 -4 0 -6 -7 -3 -15 10 -25 -22 -17 -40 10 -13
19 -22 24 -40 19 -17 -4 -27 0 -35 13 -6 10 -11 12 -11 6 0 -7 -7 -13 -15 -13
-9 0 -15 6 -14 13 1 6 -2 23 -8 37 -12 28 -12 46 0 42 15 -5 -13 36 -29 42
-13 5 -14 9 -4 21 7 8 10 26 8 40 -3 14 -2 25 2 25 4 0 5 11 2 25 -5 27 -17
33 -26 13 -4 -7 -4 1 -1 19 2 19 -1 34 -8 37 -9 5 -9 7 1 12 20 9 14 26 -8 19
-25 -8 -28 20 -4 33 14 8 14 13 4 33 -7 13 -19 28 -26 32 -24 14 -15 29 14 23
15 -3 21 -3 15 0 -7 3 -13 11 -13 18 0 7 -9 21 -20 31 -22 20 -18 35 11 35 17
0 20 14 9 50 -1 3 -1 34 0 70 1 45 6 69 16 77 10 7 12 13 5 18 -6 3 -8 17 -5
32 4 14 3 24 -2 21 -5 -2 -23 -11 -40 -18 -17 -7 -36 -26 -44 -44 -7 -17 -19
-38 -26 -46 -22 -26 -71 -166 -84 -238 -17 -92 -8 -265 19 -367 28 -110 118
-284 195 -380 75 -94 185 -201 276 -268 36 -26 71 -52 78 -58 26 -22 138 -87
227 -132 171 -86 322 -143 525 -195 102 -27 139 -35 215 -47 36 -6 169 -24
226 -30 95 -10 430 -7 524 5 50 6 108 13 130 16 22 2 64 10 92 18 35 9 55 11
59 4 4 -7 9 -7 13 1 4 6 18 13 31 15 14 2 26 5 28 7 1 1 5 2 10 4 4 1 14 4 22
7 22 8 99 29 107 29 5 0 9 -7 11 -15 2 -11 -2 -14 -12 -10 -9 3 -16 1 -16 -5
0 -6 -9 -11 -19 -11 -10 0 -21 -7 -25 -15 -3 -8 -12 -12 -21 -9 -8 4 -15 1
-15 -6 0 -10 -3 -10 -15 0 -10 9 -15 9 -15 1 0 -6 -12 -11 -26 -11 -14 0 -22
-4 -19 -10 4 -6 -6 -7 -27 -4 -32 6 -32 6 -13 -11 19 -16 19 -16 -14 -11 -29
5 -32 4 -26 -12 5 -13 3 -14 -6 -5 -9 9 -22 7 -57 -8 -25 -11 -50 -18 -56 -16
-6 3 -27 -2 -46 -10 -47 -19 -94 -26 -295 -42 -110 -9 -267 -7 -400 4 -84 8
-280 41 -297 51 -10 5 -10 4 -2 -5 17 -18 306 -71 474 -86 75 -7 190 -24 200
-30 4 -2 32 -5 62 -6 38 -1 55 -6 55 -15 0 -16 -33 -19 -42 -4 -3 6 -21 10
-38 9 -30 -1 -30 -1 -7 -8 123 -34 -384 -16 -550 19 -25 6 -56 12 -70 14 -14
3 -25 5 -25 6 0 1 -13 4 -30 6 -43 7 -199 53 -270 79 -33 12 -66 20 -72 18 -7
-3 -13 1 -13 7 0 7 -8 9 -21 5 -15 -5 -19 -4 -15 4 8 12 -40 35 -55 25 -5 -3
-9 0 -9 7 0 6 -8 9 -20 6 -11 -3 -23 -1 -26 4 -3 5 1 9 8 9 7 0 -15 13 -50 30
-34 16 -69 27 -77 24 -10 -4 -14 -1 -10 7 3 9 -18 27 -57 49 -33 19 -64 35
-67 35 -3 0 -18 11 -32 25 -14 14 -38 34 -54 45 -16 11 -46 34 -65 52 -26 23
-43 30 -58 26 -13 -3 -22 -1 -22 6 0 7 5 9 11 5 24 -14 2 16 -63 87 -118 130
-208 241 -274 342 -54 80 -69 97 -85 92 -10 -4 -19 -2 -19 4 0 5 -12 -1 -26
-14 -22 -20 -24 -27 -14 -45 8 -15 9 -25 2 -32 -15 -15 -35 28 -23 49 8 15 3
20 -32 30 -51 15 -85 17 -71 3 5 -5 20 -11 34 -13 13 -2 26 -9 28 -16 3 -10 0
-10 -16 -2 -15 8 -21 8 -24 -1 -2 -6 -15 -12 -28 -13 -60 -5 -89 -28 -52 -42
23 -9 70 -53 56 -53 -7 0 -17 7 -24 15 -7 8 -18 15 -24 14 -6 -1 -24 -1 -41 0
-22 1 -26 4 -17 13 7 7 12 19 12 27 0 11 -4 10 -20 -4 -11 -10 -17 -22 -14
-26 3 -5 -1 -9 -10 -9 -8 0 -16 6 -19 13 -3 6 -5 -214 -6 -491 l-1 -502 297 0
c196 1 302 5 310 12 8 6 13 6 13 1 0 -6 41 -10 95 -11 78 0 97 2 106 16 10 16
10 16 5 0 -4 -13 0 -18 13 -18 14 0 18 7 17 29 -1 22 -4 27 -14 19 -7 -6 -13
-9 -15 -7 -25 44 -27 50 -16 44 7 -5 10 -3 7 6 -5 16 12 38 27 34 5 -1 7 0 3
2 -5 3 -8 9 -8 14 0 6 5 7 10 4 6 -3 10 -1 10 4 0 6 -6 11 -14 11 -8 0 -17 6
-20 13 -3 6 -4 -1 -1 -16 4 -19 2 -26 -5 -22 -5 3 -10 0 -10 -7 -1 -8 -4 -7
-10 4 -6 9 -24 19 -41 23 -20 5 -29 11 -25 21 3 8 -1 14 -11 14 -9 0 -13 -3
-10 -7 4 -3 -1 -12 -11 -20 -15 -13 -15 -14 -1 -10 11 4 20 -3 28 -19 6 -13
16 -24 23 -24 9 0 9 3 -2 10 -8 5 -11 12 -7 17 5 4 12 1 17 -7 12 -19 -16 -44
-34 -29 -53 44 -66 59 -52 59 39 0 0 43 -40 45 -13 0 -31 8 -41 17 -13 14 -14
21 -5 40 11 22 11 21 6 -7 -4 -28 -3 -27 12 7 9 21 20 35 25 32 5 -3 2 -19 -7
-36 -14 -28 -14 -30 -1 -25 12 4 14 2 10 -10 -5 -12 -1 -14 15 -8 12 3 22 3
22 -2 0 -4 14 -9 30 -10 32 -2 38 5 18 25 -7 7 -8 12 -2 12 6 0 16 -12 22 -26
13 -27 37 -23 28 5 -4 11 -2 10 10 -4 10 -12 15 -14 12 -5 -2 8 -14 19 -26 25
-12 5 -22 16 -22 23 0 7 -7 20 -15 28 -8 8 -21 24 -29 36 -13 18 -17 19 -29 7
-10 -10 -11 -22 -6 -37 9 -24 24 -29 33 -9 3 6 4 -1 3 -17 -1 -16 -8 -31 -15
-32 -7 -1 -8 0 -2 3 15 7 12 23 -5 23 -8 0 -15 5 -15 11 0 5 -4 8 -9 5 -5 -4
-8 2 -7 11 2 10 -1 21 -6 24 -12 8 32 50 44 43 4 -3 8 0 8 5 0 6 8 11 18 12
10 0 12 3 5 6 -7 2 -13 20 -13 39 0 21 -8 42 -21 55 -14 14 -18 26 -13 42 7
21 8 21 19 -7 l12 -29 7 27 c6 23 -7 66 -19 66 -2 0 -11 -12 -19 -27 -8 -16
-15 -22 -16 -15 0 7 -5 10 -12 6 -8 -5 -9 -2 -5 9 4 10 10 24 13 32 3 8 1 15
-5 15 -6 0 -11 5 -11 11 0 6 9 4 21 -5 12 -8 28 -12 35 -9 8 3 14 0 14 -6 0
-6 7 -8 15 -5 14 6 17 2 19 -28 1 -7 5 -16 9 -19 12 -9 -3 -40 -16 -32 -7 4
-8 0 -4 -11 4 -10 7 -22 7 -28 0 -6 9 -8 20 -5 11 3 18 0 17 -6 -1 -6 7 -13
18 -15 11 -2 24 -11 29 -19 6 -12 10 -12 16 -3 5 8 9 7 13 -5 4 -9 3 -13 -3
-10 -6 3 -10 -1 -10 -10 0 -13 6 -16 24 -11 30 7 39 -2 21 -21 -8 -8 -15 -21
-15 -28 0 -17 29 -47 40 -40 4 3 3 -6 -3 -19 -7 -13 -15 -22 -20 -19 -4 3 -3
11 4 19 10 12 9 13 -5 8 -15 -6 -18 -12 -15 -30 0 -4 -5 -11 -13 -16 -12 -9
15 -3 50 9 19 8 14 -15 -5 -26 -10 -6 -13 -11 -6 -11 8 0 9 -9 3 -29 -4 -16
-5 -33 -2 -37 4 -4 1 -4 -5 0 -8 4 -13 1 -13 -9 0 -12 6 -15 19 -10 16 5 18 2
14 -17 -3 -17 -2 -19 5 -9 5 7 15 10 21 7 6 -4 11 -3 11 3 0 5 -5 13 -10 16
-6 4 -7 11 -4 17 5 7 2 8 -6 3 -10 -6 -12 -3 -8 13 4 12 2 22 -3 22 -5 0 -9 5
-9 10 0 6 7 10 15 10 8 0 15 4 15 10 0 5 -8 6 -17 3 -15 -6 -16 -5 -3 9 10 11
17 12 26 4 7 -6 10 -14 7 -19 -2 -4 0 -7 6 -7 7 0 7 -8 1 -26 -12 -31 -13 -44
-1 -25 7 11 11 9 20 -8 7 -12 16 -19 22 -16 5 4 9 1 9 -4 0 -6 -12 -12 -27
-12 -17 -1 -21 -3 -10 -6 9 -2 17 -14 18 -26 0 -21 1 -21 9 -2 5 11 9 14 9 8
1 -7 12 -15 26 -19 19 -5 25 -12 23 -28 -3 -21 -1 -21 226 -24 173 -2 232 1
244 10 9 8 13 8 9 2 -9 -15 43 -15 62 0 11 8 13 8 7 -1 -6 -10 164 -13 823
-13 l831 0 0 194 c0 189 -1 194 -20 189 -11 -3 -20 -10 -20 -15 0 -5 -4 -6
-10 -3 -12 7 -14 26 -2 24 4 -1 17 2 30 6 21 7 22 13 22 101 0 77 -3 94 -15
94 -18 0 -20 17 -2 23 6 2 -7 10 -31 16 -34 10 -47 10 -58 0 -8 -6 -18 -9 -21
-5 -4 4 -2 10 4 14 7 5 7 11 -3 20 -12 11 -14 9 -14 -12 0 -38 -20 -42 -21 -4
l-1 33 -15 -35 c-20 -47 -21 -47 -39 -22 -19 28 -30 28 -57 -2 -16 -17 -27
-21 -42 -15 -19 7 -19 8 3 8 12 1 22 6 22 11 0 16 -50 12 -66 -5 -9 -8 -11
-15 -6 -15 6 0 13 -7 16 -16 5 -13 2 -15 -16 -11 -14 4 -29 0 -40 -10 -10 -9
-18 -11 -18 -5 0 6 5 12 12 14 7 3 9 12 5 22 -4 9 -11 14 -17 11 -19 -12 -10
25 11 46 16 16 23 18 29 9 9 -15 30 -4 30 16 0 9 11 14 31 14 26 0 29 3 24 20
-5 15 -3 18 9 14 9 -3 16 -14 16 -23 0 -9 5 -23 10 -31 8 -12 10 -10 9 10 -1
14 -1 40 -1 58 2 27 6 32 28 32 14 0 22 4 19 10 -3 5 15 20 40 32 31 15 44 27
40 37 -3 8 -1 17 4 21 6 3 7 17 4 30 -6 22 -7 23 -15 4 -7 -18 -8 -18 -5 0 1
13 12 20 36 23 19 2 39 9 43 16 6 9 8 9 8 0 0 -7 7 -13 16 -13 10 0 14 6 10
15 -3 9 0 15 8 15 12 0 14 40 13 227 l-2 227 -35 9 c-42 10 -62 27 -34 28 17
0 17 1 -3 11 -28 13 -40 42 -15 34 9 -3 34 -8 55 -12 l37 -6 0 496 c0 273 -3
496 -6 496 -3 0 -12 -7 -20 -15 -9 -8 -21 -15 -27 -15 -7 0 -6 4 3 10 9 6 10
10 3 10 -6 0 -19 -7 -27 -16 -9 -8 -21 -12 -26 -9 -6 4 -19 -2 -29 -14 -11
-13 -25 -18 -38 -15 -11 3 -40 -3 -64 -14 -53 -24 -124 -38 -114 -23 3 6 1 11
-4 11 -6 0 -11 -7 -11 -15 0 -8 -3 -14 -7 -13 -5 1 -28 -2 -53 -6 -25 -4 -58
-9 -75 -11 -16 -2 -30 -4 -30 -5 0 -1 -13 -3 -30 -5 -97 -11 -167 -25 -183
-38 -12 -9 -30 -13 -79 -16 -23 -1 -27 -21 -9 -50 5 -8 3 -16 -5 -22 -9 -5
-16 -3 -21 9 -4 9 -7 -6 -7 -35 -1 -28 -6 -55 -13 -59 -6 -4 -8 -3 -4 4 3 6 3
13 -2 16 -5 3 -16 -9 -26 -25 -18 -30 -17 -30 3 -36 12 -3 21 -12 21 -19 0
-11 -7 -13 -26 -8 -19 5 -25 4 -20 -5 5 -7 -3 -11 -22 -11 -16 0 -35 -7 -42
-15 -6 -8 -24 -14 -38 -14 -15 0 -43 -3 -62 -6 -98 -17 -134 -14 -295 21 -200
44 -412 155 -546 285 -67 65 -95 104 -150 206 -21 41 -29 49 -24 28z m-85
-535 c0 -10 9 -24 20 -30 16 -9 18 -15 10 -30 -11 -20 -35 -27 -44 -12 -3 4
-7 27 -10 50 -4 32 -2 42 10 42 8 0 14 -9 14 -20z m30 -115 c-12 -15 -30 -12
-30 5 0 8 31 19 39 13 2 -1 -2 -9 -9 -18z m-71 -8 c8 -11 6 -13 -12 -11 -30 3
-29 3 -22 14 8 14 20 13 34 -3z m-73 -32 c4 -8 10 -12 15 -9 17 10 31 -7 18
-22 -6 -7 -16 -11 -23 -7 -12 8 -18 9 -59 11 -16 1 -26 6 -22 12 4 6 10 8 15
5 4 -3 10 2 14 10 3 8 12 15 21 15 9 0 18 -7 21 -15z m-42 -71 c-4 -14 -2 -24
5 -24 6 0 11 -4 11 -10 0 -15 -19 -12 -37 6 -13 12 -13 20 -4 40 14 31 33 22
25 -12z m-419 -14 c3 -5 -3 -10 -15 -10 -12 0 -18 5 -15 10 3 6 10 10 15 10 5
0 12 -4 15 -10z m655 -31 c0 -31 -18 -59 -35 -53 -8 4 -15 15 -15 25 0 10 -4
19 -8 19 -14 0 -43 -37 -40 -50 2 -9 -10 -14 -34 -15 -40 -2 -53 17 -20 29 9
3 42 19 72 36 65 35 80 37 80 9z m-52 -68 c3 -8 -1 -12 -9 -9 -7 2 -15 10 -17
17 -3 8 1 12 9 9 7 -2 15 -10 17 -17z m-568 -1 c0 -5 -2 -10 -4 -10 -3 0 -8 5
-11 10 -3 6 -1 10 4 10 6 0 11 -4 11 -10z m636 -12 c4 -6 3 -8 -3 -5 -6 4 -16
0 -22 -7 -8 -10 -9 -16 -1 -21 14 -9 3 -24 -28 -36 -18 -7 -28 -6 -34 3 -7 10
-11 9 -22 -4 -17 -23 -42 -23 -50 -1 -11 27 26 56 73 56 23 0 41 3 41 8 0 4 8
10 18 12 9 3 18 5 19 6 1 0 5 -4 9 -11z m17 -64 c9 -9 -4 -35 -14 -28 -5 3 -9
12 -9 20 0 14 12 19 23 8z m-193 -29 c0 -16 -6 -25 -15 -25 -8 0 -14 -6 -12
-12 1 -7 -8 -14 -20 -16 -28 -4 -30 19 -5 53 23 33 52 33 52 0z m80 -34 c18
-35 4 -44 -24 -15 -15 14 -16 14 -16 0 0 -9 6 -16 13 -16 7 0 13 -9 14 -20 2
-26 -32 -27 -46 -2 -10 18 2 50 23 64 17 12 25 9 36 -11z m45 -1 c3 -5 1 -10
-4 -10 -6 0 -11 5 -11 10 0 6 2 10 4 10 3 0 8 -4 11 -10z m-202 -14 c3 -8 -3
-22 -14 -32 -18 -16 -19 -16 -19 8 0 37 22 53 33 24z m77 -36 c0 -5 3 -15 6
-23 4 -11 -1 -13 -20 -10 -30 6 -32 1 -11 -20 13 -13 13 -16 -1 -21 -8 -3 -12
-2 -9 3 3 5 1 12 -5 16 -13 8 -13 48 1 62 12 12 39 7 39 -7z m136 -21 c3 -6 2
-15 -4 -21 -6 -6 -11 -2 -15 11 -5 22 7 29 19 10z m-210 -57 c-4 -37 -18 -44
-41 -21 -7 7 -4 15 8 23 9 7 17 21 17 30 0 10 5 14 10 11 6 -4 9 -23 6 -43z
m178 19 c13 -14 14 -21 5 -27 -7 -4 -18 1 -26 11 -26 36 -9 49 21 16z m-54
-11 c0 -5 -5 -10 -11 -10 -5 0 -7 5 -4 10 3 6 8 10 11 10 2 0 4 -4 4 -10z
m-30 -46 c0 -8 -4 -12 -10 -9 -5 3 -10 10 -10 16 0 5 5 9 10 9 6 0 10 -7 10
-16z m1267 -16 c-3 -7 -5 -2 -5 12 0 14 2 19 5 13 2 -7 2 -19 0 -25z m-1127
-68 c0 -12 -55 -41 -64 -33 -10 10 25 43 46 43 10 0 18 -4 18 -10z m66 -4 c23
-17 19 -21 -23 -29 -35 -7 -44 8 -21 31 15 15 20 15 44 -2z m144 -11 c0 -8 -4
-15 -10 -15 -5 0 -10 7 -10 15 0 8 5 15 10 15 6 0 10 -7 10 -15z m-216 -42 c7
-18 -9 -33 -36 -33 -19 0 -22 8 -12 34 8 21 40 20 48 -1z m90 2 c7 -20 -20
-44 -44 -38 -19 5 -27 32 -13 46 12 13 51 7 57 -8z m74 -58 c-4 -23 -23 -22
-23 1 0 9 -4 23 -9 30 -7 11 -4 11 13 0 12 -7 20 -21 19 -31z m-187 -6 c1 -9
1 -20 0 -25 -1 -4 4 -14 10 -22 16 -19 1 -18 -18 2 -9 8 -22 13 -29 10 -14 -5
-15 18 -2 40 11 16 38 13 39 -5z m75 8 c3 -6 1 -14 -5 -18 -7 -5 -9 -15 -5
-26 7 -17 8 -17 15 3 9 25 29 30 29 8 0 -16 -26 -46 -41 -46 -5 0 -9 10 -9 21
0 18 -2 19 -15 9 -12 -10 -15 -9 -15 4 0 22 18 56 30 56 5 0 12 -5 16 -11z
m629 -18 c-6 -5 -25 10 -25 20 0 5 6 4 14 -3 8 -7 12 -15 11 -17z m-227 7 c-2
-7 -10 -16 -18 -19 -12 -6 -11 -9 7 -15 18 -8 20 -11 8 -27 -16 -22 -48 -12
-40 13 3 9 -2 23 -10 30 -13 11 -13 15 -3 21 20 13 58 11 56 -3z m42 4 c0 -9
9 -11 55 -15 30 -2 30 -30 1 -35 -12 -3 -16 0 -11 8 6 9 3 9 -13 1 -11 -6 -25
-11 -30 -11 -11 0 -33 46 -25 54 9 9 23 7 23 -2z m-588 -34 c-3 -14 -11 -19
-27 -15 -16 3 -22 0 -18 -10 3 -7 0 -13 -6 -13 -18 0 -12 28 10 49 26 24 49
18 41 -11z m468 12 c0 -12 -7 -20 -16 -20 -36 0 -63 -57 -55 -117 3 -19 -16
-16 -23 3 -10 27 -7 61 8 73 8 7 17 22 20 35 3 12 16 28 28 34 33 15 38 14 38
-8z m230 5 c-7 -9 -15 -13 -17 -11 -7 7 7 26 19 26 6 0 6 -6 -2 -15z m26 -28
c8 3 14 1 14 -5 0 -5 -6 -12 -13 -15 -14 -5 -39 18 -29 28 4 3 8 2 10 -4 2 -5
10 -7 18 -4z m-234 -4 c-6 -2 -10 -9 -6 -14 3 -5 -2 -12 -11 -15 -10 -4 -13
-13 -10 -25 4 -11 3 -19 -2 -20 -4 0 -16 -2 -26 -4 -10 -2 -21 3 -24 11 -8 20
23 62 49 67 32 6 45 6 30 0z m-252 -7 c0 -11 -19 -15 -25 -6 -3 5 1 10 9 10 9
0 16 -2 16 -4z m362 -31 c-9 -20 -21 -34 -27 -31 -6 2 -11 -5 -11 -15 0 -11 4
-15 11 -9 6 5 10 -1 10 -19 0 -23 -3 -26 -26 -23 -30 4 -63 52 -42 59 22 8 59
42 46 43 -7 0 -13 -4 -13 -10 0 -5 -5 -10 -10 -10 -6 0 -5 8 2 20 7 12 20 19
29 17 9 -3 23 -1 30 4 8 5 15 9 15 9 1 0 -6 -16 -14 -35z m688 25 c0 -5 -4
-10 -10 -10 -5 0 -10 5 -10 10 0 6 5 10 10 10 6 0 10 -4 10 -10z m-1980 -21
c0 -14 -17 -10 -23 5 -4 10 -1 13 9 9 7 -3 14 -9 14 -14z m740 13 c0 -4 -14
-13 -30 -20 -17 -8 -27 -18 -24 -24 4 -7 2 -8 -5 -4 -11 7 -8 18 12 44 10 13
47 17 47 4z m614 -14 c5 -20 8 -21 17 -8 9 13 10 12 5 -2 -3 -10 -1 -18 5 -18
6 0 7 -5 4 -11 -5 -6 -12 -4 -20 8 -12 17 -14 16 -32 -6 -23 -28 -44 -21 -36
12 12 49 46 64 57 25z m570 -9 c3 1 19 1 34 1 24 0 27 -4 26 -27 0 -16 -4 -27
-7 -25 -4 1 -6 4 -4 5 3 6 -24 37 -33 37 -4 0 -7 -10 -6 -22 1 -17 -4 -22 -16
-20 -11 2 -18 -3 -18 -13 0 -9 -7 -18 -16 -22 -8 -3 -13 -12 -10 -20 3 -8 1
-11 -4 -8 -17 10 -11 28 20 65 19 22 26 38 20 44 -6 6 -10 15 -10 21 0 5 4 4
9 -3 4 -8 11 -13 15 -13z m-723 -12 c-10 -9 -11 -8 -5 6 3 10 9 15 12 12 3 -3
0 -11 -7 -18z m819 3 c-8 -5 -10 -10 -3 -10 7 0 9 -9 5 -22 -6 -23 -6 -23 -12
2 -8 29 -4 40 13 40 7 0 6 -4 -3 -10z m-2117 -13 c3 -8 -1 -14 -9 -14 -15 0
-18 9 -7 20 9 9 10 9 16 -6z m1537 -2 c-12 -15 -30 -12 -30 6 0 5 10 9 21 9
18 0 19 -2 9 -15z m606 -1 c-4 -11 -2 -15 7 -11 8 3 14 -1 14 -9 0 -16 -23
-19 -31 -5 -6 10 3 41 11 41 3 0 2 -7 -1 -16z m-2205 -27 c-16 -16 -25 -1 -10
16 8 8 16 11 18 5 2 -5 -2 -15 -8 -21z m54 -7 c27 -15 31 -25 14 -36 -8 -4 -7
-9 2 -16 11 -8 11 -9 -1 -5 -9 2 -14 13 -11 28 3 24 3 24 -18 5 -27 -25 -32
-19 -24 30 4 21 9 32 10 23 2 -9 15 -22 28 -29z m1274 17 c-2 -1 -11 -8 -21
-15 -12 -10 -18 -10 -24 -1 -4 8 -3 9 4 5 7 -4 12 -2 12 3 0 6 8 11 17 11 9 0
14 -1 12 -3z m171 -10 c0 -2 -8 -12 -19 -21 -17 -16 -19 -16 -25 0 -4 12 -2
15 9 10 8 -3 15 -1 15 4 0 6 5 10 10 10 6 0 10 -2 10 -3z m499 -61 c-9 -8 -10
-7 -5 7 3 10 7 24 7 30 1 7 3 4 6 -7 3 -10 -1 -23 -8 -30z m411 29 c-7 -9 -15
-13 -17 -11 -7 7 7 26 19 26 6 0 6 -6 -2 -15z m-283 -9 c0 0 3 -10 5 -21 2
-12 -2 -19 -9 -17 -7 1 -13 -7 -13 -19 0 -17 -4 -19 -22 -13 -21 6 -22 5 -8
-11 8 -11 10 -16 3 -12 -6 4 -17 1 -25 -6 -14 -13 -68 -19 -68 -7 0 18 30 30
55 24 25 -6 26 -5 16 14 -15 29 -14 48 5 67 13 13 45 13 61 1z m40 8 c-3 -3
-12 -4 -19 -1 -8 3 -5 6 6 6 11 1 17 -2 13 -5z m-927 -29 c0 -14 -2 -25 -4
-25 -2 0 -6 11 -8 25 -3 14 -1 25 3 25 5 0 9 -11 9 -25z m300 -18 c-10 -9 -11
-9 -5 1 6 11 3 12 -13 3 -12 -6 -24 -16 -27 -21 -4 -6 -11 -8 -16 -4 -14 8 0
24 35 39 33 14 49 3 26 -18z m750 23 c-13 -8 -12 -10 3 -10 10 0 15 -5 12 -10
-5 -8 -11 -7 -21 1 -15 12 -10 29 9 29 7 0 6 -4 -3 -10z m-2370 -5 c0 -15 -34
-55 -46 -55 -14 0 -10 24 9 48 9 12 37 17 37 7z m89 -16 c-16 -10 -23 -4 -14
10 3 6 11 8 17 5 6 -4 5 -9 -3 -15z m2377 6 c-3 -9 0 -15 10 -15 8 0 13 -4 10
-9 -4 -5 -1 -11 6 -13 7 -3 5 -7 -6 -11 -11 -4 -15 -3 -10 4 4 8 -1 9 -17 4
-17 -4 -20 -3 -10 3 7 5 10 15 7 21 -4 6 -4 16 -1 21 10 15 18 12 11 -5z
m-856 -26 c0 -5 6 -7 13 -3 9 5 9 4 1 -5 -12 -13 -47 -4 -38 10 7 12 24 11 24
-2z m510 1 c0 -5 -5 -10 -11 -10 -5 0 -7 5 -4 10 3 6 8 10 11 10 2 0 4 -4 4
-10z m-775 -10 c3 -5 0 -7 -8 -4 -20 7 -26 -14 -17 -69 7 -48 -3 -60 -28 -35
-9 9 -12 9 -12 1 0 -7 5 -15 10 -18 6 -3 9 -18 9 -33 -1 -21 -2 -23 -6 -7 -6
24 -21 35 -50 35 -12 0 -26 7 -31 16 -7 13 -13 14 -30 5 -25 -13 -32 -14 -32
-2 0 5 9 13 20 16 22 7 27 31 8 38 -7 2 -5 3 4 2 9 -2 19 3 22 11 7 17 33 18
39 2 3 -8 6 -7 6 4 1 9 6 20 13 24 8 5 9 2 5 -9 -3 -10 -2 -17 3 -17 6 0 10 5
10 10 0 6 7 10 15 10 8 0 15 7 15 15 0 17 25 20 35 5z m224 -14 c9 -10 8 -15
-4 -20 -8 -3 -15 -10 -15 -16 0 -7 6 -8 19 0 20 10 41 -4 27 -17 -3 -4 -6 0
-7 8 0 8 -3 6 -8 -5 -8 -21 -48 -29 -54 -12 -6 16 12 76 22 76 5 0 14 -6 20
-14z m511 4 c0 -5 -5 -10 -11 -10 -5 0 -7 5 -4 10 3 6 8 10 11 10 2 0 4 -4 4
-10z m327 -18 c3 -22 3 -22 -17 -2 -24 24 -25 29 -3 26 9 -2 18 -12 20 -24z
m121 -3 c-17 -10 -28 -2 -21 17 4 11 8 12 20 3 11 -10 11 -14 1 -20z m-1453
-9 c3 -5 1 -10 -4 -10 -6 0 -11 5 -11 10 0 6 2 10 4 10 3 0 8 -4 11 -10z
m1930 -10 c3 -5 -1 -10 -10 -10 -9 0 -13 5 -10 10 3 6 8 10 10 10 2 0 7 -4 10
-10z m-2915 -4 c0 -3 -4 -8 -10 -11 -5 -3 -10 -1 -10 4 0 6 5 11 10 11 6 0 10
-2 10 -4z m2018 -24 c2 -7 -2 -10 -12 -6 -9 3 -16 11 -16 16 0 13 23 5 28 -10z
m-639 -3 c-17 -11 -39 -12 -39 -1 0 4 12 8 27 9 19 1 22 -1 12 -8z m601 -10
c0 -5 -4 -9 -8 -9 -5 0 -9 7 -9 15 0 8 4 12 9 9 4 -3 8 -9 8 -15z m-610 -13
c0 -2 -7 -7 -16 -10 -8 -3 -12 -2 -9 4 6 10 25 14 25 6z m646 -31 c9 -14 14
-28 11 -32 -4 -3 -9 2 -13 11 -3 9 -10 16 -16 16 -5 0 -5 -7 1 -17 6 -12 6
-24 -1 -38 -11 -20 -11 -20 11 0 l23 20 -13 -27 c-9 -22 -9 -31 0 -42 17 -21
99 -59 114 -54 6 3 20 -4 30 -14 17 -18 15 -22 -15 -19 -12 2 -16 -3 -12 -13
3 -9 11 -16 16 -16 6 0 8 -6 5 -14 -3 -7 0 -19 6 -25 8 -8 8 -14 -1 -23 -9 -9
-12 -7 -12 10 0 19 -5 22 -40 22 -31 0 -38 3 -34 15 4 8 1 15 -5 15 -7 0 -14
-7 -17 -15 -5 -13 -10 -12 -25 6 -20 23 -40 19 -21 -4 9 -10 4 -13 -23 -14
-19 -1 -32 3 -29 8 7 13 -10 11 -23 -2 -8 -8 -17 -8 -33 1 -15 8 -20 8 -16 1
11 -17 -27 -1 -42 18 -12 15 -14 15 -23 -1 -14 -26 -42 -11 -35 18 7 27 -8 32
-22 8 -6 -11 -14 -14 -23 -8 -8 5 -24 7 -36 5 -13 -1 -23 2 -23 8 0 6 7 11 16
11 8 0 13 4 10 9 -3 5 -15 7 -26 4 -11 -3 -20 0 -20 6 0 5 7 8 15 5 10 -4 15
0 15 11 0 12 -5 15 -22 9 -30 -9 -22 -1 21 21 23 12 31 13 25 3 -6 -10 -5 -11
7 -1 8 6 25 13 39 15 15 2 24 9 22 17 -2 10 5 12 28 8 25 -6 30 -3 30 13 0 11
7 20 15 20 8 0 15 7 15 16 0 8 5 12 11 9 5 -4 19 3 29 15 11 13 26 20 34 17 9
-4 18 -2 21 3 11 18 34 10 51 -15z m-916 -5 c-20 -13 -33 -13 -25 0 3 6 14 10
23 10 15 0 15 -2 2 -10z m63 -8 c2 7 8 9 13 5 5 -4 2 -12 -6 -17 -22 -14 -37
-12 -37 5 0 10 4 12 13 4 8 -7 13 -6 17 3z m322 -50 c-3 -3 -11 0 -18 7 -9 10
-8 11 6 5 10 -3 15 -9 12 -12z m1120 -103 c8 -26 -6 -43 -31 -36 -16 4 -15 5
4 6 21 1 33 31 12 31 -5 0 -10 5 -10 10 0 18 19 10 25 -11z m385 11 c0 -5 -7
-10 -16 -10 -8 0 -12 5 -9 10 3 6 10 10 16 10 5 0 9 -4 9 -10z m-467 -15 c-3
-9 -8 -14 -10 -11 -3 3 -2 9 2 15 9 16 15 13 8 -4z m297 5 c0 -5 -9 -10 -21
-10 -11 0 -17 5 -14 10 3 6 13 10 21 10 8 0 14 -4 14 -10z m-378 -42 c-7 -7
-12 -8 -12 -2 0 14 12 26 19 19 2 -3 -1 -11 -7 -17z m-63 -22 c0 -7 -2 -7 -5
1 -3 7 -11 11 -17 9 -7 -1 -9 -1 -4 1 4 3 4 10 0 16 -4 7 1 6 10 -2 9 -7 17
-19 16 -25z m-1740 -19 c13 -20 13 -21 -2 -9 -9 8 -21 11 -26 8 -5 -4 -9 2 -8
13 1 23 18 18 36 -12z m1585 12 c10 -12 12 -19 4 -15 -7 3 -21 9 -30 12 -10 4
-18 10 -18 15 0 16 25 9 44 -12z m53 4 c-9 -9 -20 -13 -24 -9 -4 4 -1 11 7 16
25 16 35 11 17 -7z m-1681 -60 c-7 -7 -26 7 -26 19 0 6 6 6 15 -2 9 -7 13 -15
11 -17z m1724 11 c0 -8 -5 -12 -10 -9 -6 4 -8 11 -5 16 9 14 15 11 15 -7z
m-1889 -37 c-25 -26 -28 -10 -3 21 9 12 19 16 21 11 2 -6 -6 -21 -18 -32z
m1559 39 c0 -2 -7 -7 -16 -10 -8 -3 -12 -2 -9 4 6 10 25 14 25 6z m-1573 -90
c-18 -14 -7 -33 12 -22 4 3 1 -10 -8 -29 -18 -39 -27 -40 -50 -5 -9 14 -11 21
-4 17 8 -5 15 1 19 17 5 21 16 30 44 35 3 0 -3 -6 -13 -13z m393 -16 c0 -5 -5
-10 -11 -10 -5 0 -7 5 -4 10 3 6 8 10 11 10 2 0 4 -4 4 -10z m2166 -15 c17
-16 14 -18 -10 -9 -9 3 -16 10 -16 15 0 13 9 11 26 -6z m-2261 -5 c3 -5 1 -10
-4 -10 -6 0 -11 5 -11 10 0 6 2 10 4 10 3 0 8 -4 11 -10z m80 -24 c0 -13 -6
-29 -12 -35 -15 -14 -17 -2 -3 33 12 32 15 33 15 2z m-495 -46 c-8 -5 -19 -10
-25 -10 -5 0 -3 5 5 10 8 5 20 10 25 10 6 0 3 -5 -5 -10z m75 0 c3 -5 1 -10
-5 -10 -7 0 -9 -8 -5 -20 5 -15 3 -18 -9 -14 -12 4 -13 11 -6 24 7 13 6 20 -3
23 -7 3 -5 6 5 6 9 1 20 -3 23 -9z m445 -10 c0 -5 -2 -10 -4 -10 -3 0 -8 5
-11 10 -3 6 -1 10 4 10 6 0 11 -4 11 -10z m-38 -35 c-2 -14 -9 -25 -14 -25 -5
0 -7 3 -5 8 2 4 7 15 10 25 9 25 15 21 9 -8z m68 -5 c0 -5 -2 -10 -4 -10 -3 0
-8 5 -11 10 -3 6 -1 10 4 10 6 0 11 -4 11 -10z m50 -4 c0 -2 -7 -9 -15 -16
-13 -11 -14 -10 -9 4 5 14 24 23 24 12z m-545 -24 c-3 -3 -11 0 -18 7 -9 10
-8 11 6 5 10 -3 15 -9 12 -12z m470 -3 c11 -16 1 -19 -13 -3 -7 8 -8 14 -3 14
5 0 13 -5 16 -11z m85 1 c0 -5 -5 -10 -11 -10 -5 0 -7 5 -4 10 3 6 8 10 11 10
2 0 4 -4 4 -10z m210 6 c0 -3 -4 -8 -10 -11 -5 -3 -10 -1 -10 4 0 6 5 11 10
11 6 0 10 -2 10 -4z m-779 -20 c5 3 9 0 9 -6 0 -7 -6 -10 -14 -7 -7 3 -19 0
-26 -6 -9 -9 -9 -6 0 13 8 15 15 20 18 12 2 -6 8 -10 13 -6z m459 -21 c-7 -8
-17 -15 -22 -15 -11 0 14 29 26 30 5 0 3 -7 -4 -15z m480 -6 c13 -9 12 -10 -3
-5 -22 7 -36 -22 -16 -35 9 -6 10 -9 2 -9 -17 0 -25 17 -18 40 7 23 14 24 35
9z m-890 -11 c0 6 4 12 10 12 5 0 7 -7 4 -15 -8 -21 -34 -19 -34 3 0 14 2 15
10 2 6 -10 10 -11 10 -2z m800 -36 c0 -1 -9 2 -20 8 -11 6 -20 15 -20 20 0 6
9 2 20 -7 11 -10 20 -19 20 -21z m-869 5 c-10 -9 -11 -8 -5 6 3 10 9 15 12 12
3 -3 0 -11 -7 -18z m562 -20 c-3 -5 -14 -6 -25 -4 -16 5 -17 3 -7 -9 10 -12 9
-13 -4 -8 -8 3 -18 12 -21 20 -3 8 -1 12 4 9 5 -3 17 2 27 13 16 15 19 16 24
2 4 -8 4 -19 2 -23z m82 21 c5 -4 0 -6 -12 -6 -13 1 -19 7 -16 15 3 8 8 10 12
6 3 -4 10 -11 16 -15z m400 2 c-3 -5 -14 -10 -23 -9 -14 0 -13 2 3 9 27 11 27
11 20 0z m-975 -8 c0 -5 -7 -17 -15 -28 -14 -18 -14 -17 -4 9 12 27 19 34 19
19z m1033 -27 c-3 -9 -8 -14 -10 -11 -3 3 -2 9 2 15 9 16 15 13 8 -4z m-923 1
c0 -3 -4 -8 -10 -11 -5 -3 -10 -1 -10 4 0 6 5 11 10 11 6 0 10 -2 10 -4z m765
-6 c3 -5 1 -10 -4 -10 -6 0 -11 5 -11 10 0 6 2 10 4 10 3 0 8 -4 11 -10z
m-352 -14 c4 -10 1 -13 -8 -9 -8 3 -12 9 -9 14 7 12 11 11 17 -5z m627 4 c0
-5 -5 -10 -11 -10 -5 0 -7 5 -4 10 3 6 8 10 11 10 2 0 4 -4 4 -10z m-1075 -10
c-4 -7 2 -9 17 -7 12 2 17 2 11 0 -14 -5 -17 -16 -6 -26 3 -4 13 -1 21 6 13
10 15 9 9 -5 -3 -9 -1 -19 6 -22 7 -2 3 -5 -8 -5 -22 -1 -46 12 -48 25 -1 5
-11 8 -22 6 -16 -2 -17 0 -5 8 8 5 11 10 7 10 -12 0 2 20 14 20 6 0 7 -5 4
-10z m524 1 c7 -5 9 -11 5 -14 -5 -3 -15 1 -22 9 -14 16 -5 18 17 5z m253 -5
c7 4 8 2 4 -5 -9 -13 -26 -5 -25 12 0 9 2 8 6 -1 2 -6 10 -9 15 -6z m-906 -24
c-14 -14 -17 -14 -14 -2 3 17 20 31 27 24 3 -2 -3 -12 -13 -22z m272 10 c2 -8
-6 -8 -29 -2 -44 13 -46 18 -7 15 17 -1 34 -7 36 -13z m-388 -8 c0 -2 -7 -4
-15 -4 -8 0 -15 4 -15 10 0 5 7 7 15 4 8 -4 15 -8 15 -10z m190 1 c0 -8 -4
-15 -8 -15 -5 0 -9 7 -9 15 0 8 4 15 9 15 4 0 8 -7 8 -15z m185 -15 c3 -6 -1
-7 -9 -4 -18 7 -21 14 -7 14 6 0 13 -4 16 -10z m-365 -10 c0 -5 -5 -10 -11
-10 -5 0 -7 5 -4 10 3 6 8 10 11 10 2 0 4 -4 4 -10z"/>
<path d="M1576 1011 c-3 -5 2 -15 12 -22 15 -12 16 -12 5 2 -7 9 -10 19 -6 22
3 4 4 7 0 7 -3 0 -8 -4 -11 -9z"/>
<path d="M2269 968 c-6 -11 -3 -56 2 -52 4 2 10 -2 13 -8 3 -7 4 -4 3 7 -2 11
4 26 13 33 13 10 12 11 -4 5 -13 -4 -17 -3 -12 5 4 7 2 12 -3 12 -6 0 -12 -1
-12 -2z"/>
<path d="M2310 530 c0 -5 7 -10 16 -10 8 0 12 5 9 10 -3 6 -10 10 -16 10 -5 0
-9 -4 -9 -10z"/>
<path d="M585 340 c-3 -5 -1 -10 4 -10 6 0 11 5 11 10 0 6 -2 10 -4 10 -3 0
-8 -4 -11 -10z"/>
<path d="M128 2145 c-3 -29 -1 -35 14 -35 10 0 18 6 18 13 0 9 2 9 8 -1 10
-15 38 -7 46 14 3 9 -1 14 -12 14 -10 0 -23 5 -30 12 -7 7 -12 8 -12 4 0 -5
-6 -3 -14 3 -11 9 -15 5 -18 -24z"/>
<path d="M251 2171 c-11 -7 -11 -10 0 -15 10 -4 10 -8 3 -11 -6 -3 -20 -12
-30 -19 -17 -13 -17 -17 -4 -40 9 -19 21 -26 36 -24 11 1 29 -3 38 -11 14 -11
16 -11 16 2 0 18 52 30 62 14 9 -15 32 6 53 50 16 33 16 36 0 52 -16 15 -17
15 -11 -6 8 -24 -9 -39 -27 -26 -7 5 -32 11 -57 12 -24 2 -49 9 -55 17 -6 9
-15 10 -24 5z"/>
<path d="M75 2120 c3 -5 8 -10 11 -10 2 0 4 5 4 10 0 6 -5 10 -11 10 -5 0 -7
-4 -4 -10z"/>
<path d="M537 2123 c-13 -12 -7 -33 8 -33 8 0 15 5 15 10 0 6 -6 10 -12 10 -9
0 -8 4 2 10 8 5 10 10 4 10 -6 0 -14 -3 -17 -7z"/>
<path d="M506 2091 c-4 -7 -5 -15 -2 -18 9 -9 19 4 14 18 -4 11 -6 11 -12 0z"/>
<path d="M562 2060 c0 -14 2 -19 5 -12 2 6 2 18 0 25 -3 6 -5 1 -5 -13z"/>
<path d="M867 2019 c6 -6 9 -18 6 -25 -3 -8 0 -14 6 -14 6 0 11 4 11 9 0 19
-12 41 -23 41 -8 0 -8 -3 0 -11z"/>
<path d="M760 1770 c0 -5 5 -10 10 -10 6 0 10 5 10 10 0 6 -4 10 -10 10 -5 0
-10 -4 -10 -10z"/>
<path d="M825 1600 c3 -5 8 -10 11 -10 2 0 4 5 4 10 0 6 -5 10 -11 10 -5 0 -7
-4 -4 -10z"/>
<path d="M630 1331 c0 -6 4 -13 10 -16 6 -3 7 1 4 9 -7 18 -14 21 -14 7z"/>
<path d="M757 1284 c-8 -8 1 -24 14 -24 5 0 9 7 9 15 0 15 -12 20 -23 9z"/>
<path d="M154 1225 c-18 -14 -18 -14 3 -15 23 0 39 15 25 24 -5 3 -18 -1 -28
-9z"/>
<path d="M7 1183 c-4 -3 -7 -16 -6 -27 0 -12 3 -16 5 -10 3 7 14 10 24 7 22
-6 26 7 8 25 -14 14 -22 15 -31 5z"/>
<path d="M210 1155 c0 -8 6 -15 13 -15 8 0 14 7 14 15 0 8 -6 15 -14 15 -7 0
-13 -7 -13 -15z"/>
<path d="M60 1116 c0 -9 5 -16 10 -16 6 0 10 4 10 9 0 6 -4 13 -10 16 -5 3
-10 -1 -10 -9z"/>
<path d="M255 1121 c-3 -5 -1 -12 5 -16 12 -7 30 2 30 16 0 12 -27 12 -35 0z"/>
<path d="M3015 750 c4 -6 11 -8 16 -5 14 9 11 15 -7 15 -8 0 -12 -5 -9 -10z"/>
<path d="M3055 750 c3 -5 8 -10 11 -10 2 0 4 5 4 10 0 6 -5 10 -11 10 -5 0 -7
-4 -4 -10z"/>
<path d="M3015 690 c-3 -5 1 -10 10 -10 9 0 14 -4 10 -9 -3 -5 -1 -12 5 -16
15 -10 12 21 -4 34 -10 8 -16 9 -21 1z"/>
<path d="M3208 693 c7 -3 16 -2 19 1 4 3 -2 6 -13 5 -11 0 -14 -3 -6 -6z"/>
<path d="M3136 681 c-4 -7 -5 -15 -2 -18 9 -9 19 4 14 18 -4 11 -6 11 -12 0z"/>
<path d="M3175 669 c-10 -15 3 -25 16 -12 7 7 7 13 1 17 -6 3 -14 1 -17 -5z"/>
<path d="M2935 659 c7 -11 35 -12 35 -1 0 4 -9 8 -20 9 -11 1 -18 -2 -15 -8z"/>
<path d="M2852 638 c-16 -16 -15 -28 3 -28 8 0 15 9 15 20 0 23 -2 24 -18 8z"/>
<path d="M3213 643 c9 -2 23 -2 30 0 6 3 -1 5 -18 5 -16 0 -22 -2 -12 -5z"/>
<path d="M713 422 c1 -14 5 -18 11 -12 7 7 6 14 -1 21 -9 9 -12 7 -10 -9z"/>
<path d="M775 391 c-3 -5 -1 -12 5 -16 5 -3 10 1 10 9 0 18 -6 21 -15 7z"/>
<path d="M795 320 c3 -5 8 -10 11 -10 2 0 4 5 4 10 0 6 -5 10 -11 10 -5 0 -7
-4 -4 -10z"/>
<path d="M820 322 c0 -12 19 -26 26 -19 2 2 -2 10 -11 17 -9 8 -15 8 -15 2z"/>
<path d="M785 291 c3 -6 10 -9 15 -6 4 3 11 0 13 -5 3 -6 4 -5 3 2 -1 7 -11
15 -21 16 -11 3 -15 0 -10 -7z"/>
<path d="M837 199 c7 -7 15 -10 18 -7 3 3 -2 9 -12 12 -14 6 -15 5 -6 -5z"/>
<path d="M864 88 c3 -15 26 -23 26 -8 0 6 -4 9 -9 6 -5 -4 -12 -1 -14 4 -3 6
-4 5 -3 -2z"/>
<path d="M940 60 c0 -5 5 -10 11 -10 5 0 7 5 4 10 -3 6 -8 10 -11 10 -2 0 -4
-4 -4 -10z"/>
<path d="M876 47 c3 -10 9 -15 12 -12 3 3 0 11 -7 18 -10 9 -11 8 -5 -6z"/>
<path d="M907 28 c-6 -21 -2 -36 7 -27 10 11 16 49 8 49 -5 0 -12 -10 -15 -22z"/>
</g>
</svg>
